<mxfile host="app.diagrams.net" agent="Mozilla/5.0 (Windows NT 10.0; Win64; x64) AppleWebKit/537.36 (KHTML, like Gecko) Chrome/130.0.0.0 Safari/537.36" version="24.8.4">
  <diagram id="C5RBs43oDa-KdzZeNtuy" name="Page-1">
    <mxGraphModel dx="5736" dy="2952" grid="1" gridSize="10" guides="1" tooltips="1" connect="1" arrows="1" fold="1" page="1" pageScale="1" pageWidth="3300" pageHeight="4681" math="0" shadow="0">
      <root>
        <mxCell id="WIyWlLk6GJQsqaUBKTNV-0" />
        <mxCell id="WIyWlLk6GJQsqaUBKTNV-1" parent="WIyWlLk6GJQsqaUBKTNV-0" />
        <mxCell id="dkug5ZFoNyvDBo68FZNn-1" value="&lt;b&gt;BinarySearchTreeInterface.h&lt;/b&gt;" style="swimlane;fontStyle=0;childLayout=stackLayout;horizontal=1;startSize=26;fillColor=none;horizontalStack=0;resizeParent=1;resizeParentMax=0;resizeLast=0;collapsible=1;marginBottom=0;whiteSpace=wrap;html=1;" vertex="1" parent="WIyWlLk6GJQsqaUBKTNV-1">
          <mxGeometry x="510" y="2720" width="210" height="208" as="geometry" />
        </mxCell>
        <mxCell id="dkug5ZFoNyvDBo68FZNn-2" value="+ isEmpty() : bool" style="text;strokeColor=none;fillColor=none;align=left;verticalAlign=top;spacingLeft=4;spacingRight=4;overflow=hidden;rotatable=0;points=[[0,0.5],[1,0.5]];portConstraint=eastwest;whiteSpace=wrap;html=1;" vertex="1" parent="dkug5ZFoNyvDBo68FZNn-1">
          <mxGeometry y="26" width="210" height="26" as="geometry" />
        </mxCell>
        <mxCell id="dkug5ZFoNyvDBo68FZNn-3" value="+ add(const T newItem) : bool" style="text;strokeColor=none;fillColor=none;align=left;verticalAlign=top;spacingLeft=4;spacingRight=4;overflow=hidden;rotatable=0;points=[[0,0.5],[1,0.5]];portConstraint=eastwest;whiteSpace=wrap;html=1;" vertex="1" parent="dkug5ZFoNyvDBo68FZNn-1">
          <mxGeometry y="52" width="210" height="26" as="geometry" />
        </mxCell>
        <mxCell id="dkug5ZFoNyvDBo68FZNn-4" value="+clear()" style="text;strokeColor=none;fillColor=none;align=left;verticalAlign=top;spacingLeft=4;spacingRight=4;overflow=hidden;rotatable=0;points=[[0,0.5],[1,0.5]];portConstraint=eastwest;whiteSpace=wrap;html=1;" vertex="1" parent="dkug5ZFoNyvDBo68FZNn-1">
          <mxGeometry y="78" width="210" height="26" as="geometry" />
        </mxCell>
        <mxCell id="dkug5ZFoNyvDBo68FZNn-5" value="+ contains(const T findItem) : bool" style="text;strokeColor=none;fillColor=none;align=left;verticalAlign=top;spacingLeft=4;spacingRight=4;overflow=hidden;rotatable=0;points=[[0,0.5],[1,0.5]];portConstraint=eastwest;whiteSpace=wrap;html=1;" vertex="1" parent="dkug5ZFoNyvDBo68FZNn-1">
          <mxGeometry y="104" width="210" height="26" as="geometry" />
        </mxCell>
        <mxCell id="dkug5ZFoNyvDBo68FZNn-11" value="+ preOrderTraverse()&amp;nbsp;" style="text;strokeColor=none;fillColor=none;align=left;verticalAlign=top;spacingLeft=4;spacingRight=4;overflow=hidden;rotatable=0;points=[[0,0.5],[1,0.5]];portConstraint=eastwest;whiteSpace=wrap;html=1;" vertex="1" parent="dkug5ZFoNyvDBo68FZNn-1">
          <mxGeometry y="130" width="210" height="26" as="geometry" />
        </mxCell>
        <mxCell id="dkug5ZFoNyvDBo68FZNn-13" value="+ inOrderTraverse()&amp;nbsp;" style="text;strokeColor=none;fillColor=none;align=left;verticalAlign=top;spacingLeft=4;spacingRight=4;overflow=hidden;rotatable=0;points=[[0,0.5],[1,0.5]];portConstraint=eastwest;whiteSpace=wrap;html=1;" vertex="1" parent="dkug5ZFoNyvDBo68FZNn-1">
          <mxGeometry y="156" width="210" height="26" as="geometry" />
        </mxCell>
        <mxCell id="dkug5ZFoNyvDBo68FZNn-14" value="+ postOrderTraverse()&amp;nbsp;" style="text;strokeColor=none;fillColor=none;align=left;verticalAlign=top;spacingLeft=4;spacingRight=4;overflow=hidden;rotatable=0;points=[[0,0.5],[1,0.5]];portConstraint=eastwest;whiteSpace=wrap;html=1;" vertex="1" parent="dkug5ZFoNyvDBo68FZNn-1">
          <mxGeometry y="182" width="210" height="26" as="geometry" />
        </mxCell>
        <mxCell id="dkug5ZFoNyvDBo68FZNn-19" value="BinarySearchTree.h" style="swimlane;fontStyle=1;align=center;verticalAlign=top;childLayout=stackLayout;horizontal=1;startSize=26;horizontalStack=0;resizeParent=1;resizeParentMax=0;resizeLast=0;collapsible=1;marginBottom=0;whiteSpace=wrap;html=1;" vertex="1" parent="WIyWlLk6GJQsqaUBKTNV-1">
          <mxGeometry x="850" y="2790" width="302" height="502" as="geometry" />
        </mxCell>
        <mxCell id="dkug5ZFoNyvDBo68FZNn-20" value="+ BinarySearchTree()&lt;br&gt;&lt;div&gt;&lt;br&gt;&lt;/div&gt;&lt;div&gt;&lt;br&gt;&lt;/div&gt;" style="text;strokeColor=none;fillColor=none;align=left;verticalAlign=top;spacingLeft=4;spacingRight=4;overflow=hidden;rotatable=0;points=[[0,0.5],[1,0.5]];portConstraint=eastwest;whiteSpace=wrap;html=1;" vertex="1" parent="dkug5ZFoNyvDBo68FZNn-19">
          <mxGeometry y="26" width="302" height="26" as="geometry" />
        </mxCell>
        <mxCell id="dkug5ZFoNyvDBo68FZNn-25" value="+ ~BinarySearchTree()&lt;br&gt;&lt;div&gt;&lt;br&gt;&lt;/div&gt;&lt;div&gt;&lt;br&gt;&lt;/div&gt;" style="text;strokeColor=none;fillColor=none;align=left;verticalAlign=top;spacingLeft=4;spacingRight=4;overflow=hidden;rotatable=0;points=[[0,0.5],[1,0.5]];portConstraint=eastwest;whiteSpace=wrap;html=1;" vertex="1" parent="dkug5ZFoNyvDBo68FZNn-19">
          <mxGeometry y="52" width="302" height="26" as="geometry" />
        </mxCell>
        <mxCell id="dkug5ZFoNyvDBo68FZNn-28" value="+ print2D() : void" style="text;strokeColor=none;fillColor=none;align=left;verticalAlign=top;spacingLeft=4;spacingRight=4;overflow=hidden;rotatable=0;points=[[0,0.5],[1,0.5]];portConstraint=eastwest;whiteSpace=wrap;html=1;" vertex="1" parent="dkug5ZFoNyvDBo68FZNn-19">
          <mxGeometry y="78" width="302" height="26" as="geometry" />
        </mxCell>
        <mxCell id="dkug5ZFoNyvDBo68FZNn-26" value="- root : Node&amp;lt;T&amp;gt;" style="text;strokeColor=none;fillColor=none;align=left;verticalAlign=top;spacingLeft=4;spacingRight=4;overflow=hidden;rotatable=0;points=[[0,0.5],[1,0.5]];portConstraint=eastwest;whiteSpace=wrap;html=1;" vertex="1" parent="dkug5ZFoNyvDBo68FZNn-19">
          <mxGeometry y="104" width="302" height="26" as="geometry" />
        </mxCell>
        <mxCell id="dkug5ZFoNyvDBo68FZNn-29" value="- placeNode(Node&amp;lt;T&amp;gt; currRoot, const T toFind) : bool" style="text;strokeColor=none;fillColor=none;align=left;verticalAlign=top;spacingLeft=4;spacingRight=4;overflow=hidden;rotatable=0;points=[[0,0.5],[1,0.5]];portConstraint=eastwest;whiteSpace=wrap;html=1;" vertex="1" parent="dkug5ZFoNyvDBo68FZNn-19">
          <mxGeometry y="130" width="302" height="26" as="geometry" />
        </mxCell>
        <mxCell id="dkug5ZFoNyvDBo68FZNn-27" value="- print2DUtil(Node&amp;lt;T&amp;gt; currRoot, int space)&amp;nbsp;" style="text;strokeColor=none;fillColor=none;align=left;verticalAlign=top;spacingLeft=4;spacingRight=4;overflow=hidden;rotatable=0;points=[[0,0.5],[1,0.5]];portConstraint=eastwest;whiteSpace=wrap;html=1;" vertex="1" parent="dkug5ZFoNyvDBo68FZNn-19">
          <mxGeometry y="156" width="302" height="26" as="geometry" />
        </mxCell>
        <mxCell id="dkug5ZFoNyvDBo68FZNn-24" value="- findNode(Node&amp;lt;T&amp;gt; currRoot, const T toFind) : bool&amp;nbsp;" style="text;strokeColor=none;fillColor=none;align=left;verticalAlign=top;spacingLeft=4;spacingRight=4;overflow=hidden;rotatable=0;points=[[0,0.5],[1,0.5]];portConstraint=eastwest;whiteSpace=wrap;html=1;" vertex="1" parent="dkug5ZFoNyvDBo68FZNn-19">
          <mxGeometry y="182" width="302" height="26" as="geometry" />
        </mxCell>
        <mxCell id="dkug5ZFoNyvDBo68FZNn-30" value="- inorder(Node&amp;lt;T&amp;gt; currRoot)" style="text;strokeColor=none;fillColor=none;align=left;verticalAlign=top;spacingLeft=4;spacingRight=4;overflow=hidden;rotatable=0;points=[[0,0.5],[1,0.5]];portConstraint=eastwest;whiteSpace=wrap;html=1;" vertex="1" parent="dkug5ZFoNyvDBo68FZNn-19">
          <mxGeometry y="208" width="302" height="26" as="geometry" />
        </mxCell>
        <mxCell id="dkug5ZFoNyvDBo68FZNn-36" value="- inorder(Node&amp;lt;T&amp;gt; currRoot, Visitor visitor)" style="text;strokeColor=none;fillColor=none;align=left;verticalAlign=top;spacingLeft=4;spacingRight=4;overflow=hidden;rotatable=0;points=[[0,0.5],[1,0.5]];portConstraint=eastwest;whiteSpace=wrap;html=1;" vertex="1" parent="dkug5ZFoNyvDBo68FZNn-19">
          <mxGeometry y="234" width="302" height="26" as="geometry" />
        </mxCell>
        <mxCell id="dkug5ZFoNyvDBo68FZNn-32" value="- preorderHelper(Node&amp;lt;T&amp;gt; currRoot)" style="text;strokeColor=none;fillColor=none;align=left;verticalAlign=top;spacingLeft=4;spacingRight=4;overflow=hidden;rotatable=0;points=[[0,0.5],[1,0.5]];portConstraint=eastwest;whiteSpace=wrap;html=1;" vertex="1" parent="dkug5ZFoNyvDBo68FZNn-19">
          <mxGeometry y="260" width="302" height="26" as="geometry" />
        </mxCell>
        <mxCell id="dkug5ZFoNyvDBo68FZNn-37" value="- preorderHelper(Node&amp;lt;T&amp;gt; currRoot, Visitor visitor)" style="text;strokeColor=none;fillColor=none;align=left;verticalAlign=top;spacingLeft=4;spacingRight=4;overflow=hidden;rotatable=0;points=[[0,0.5],[1,0.5]];portConstraint=eastwest;whiteSpace=wrap;html=1;" vertex="1" parent="dkug5ZFoNyvDBo68FZNn-19">
          <mxGeometry y="286" width="302" height="26" as="geometry" />
        </mxCell>
        <mxCell id="dkug5ZFoNyvDBo68FZNn-31" value="- postorderHelper(Node&amp;lt;T&amp;gt; currRoot)" style="text;strokeColor=none;fillColor=none;align=left;verticalAlign=top;spacingLeft=4;spacingRight=4;overflow=hidden;rotatable=0;points=[[0,0.5],[1,0.5]];portConstraint=eastwest;whiteSpace=wrap;html=1;" vertex="1" parent="dkug5ZFoNyvDBo68FZNn-19">
          <mxGeometry y="312" width="302" height="26" as="geometry" />
        </mxCell>
        <mxCell id="dkug5ZFoNyvDBo68FZNn-38" value="- postorderHelper(Node&amp;lt;T&amp;gt; currRoot, Visitor visitor)" style="text;strokeColor=none;fillColor=none;align=left;verticalAlign=top;spacingLeft=4;spacingRight=4;overflow=hidden;rotatable=0;points=[[0,0.5],[1,0.5]];portConstraint=eastwest;whiteSpace=wrap;html=1;" vertex="1" parent="dkug5ZFoNyvDBo68FZNn-19">
          <mxGeometry y="338" width="302" height="26" as="geometry" />
        </mxCell>
        <mxCell id="dkug5ZFoNyvDBo68FZNn-33" value="- deleteTree(Node&amp;lt;T&amp;gt; currentRoot)" style="text;strokeColor=none;fillColor=none;align=left;verticalAlign=top;spacingLeft=4;spacingRight=4;overflow=hidden;rotatable=0;points=[[0,0.5],[1,0.5]];portConstraint=eastwest;whiteSpace=wrap;html=1;" vertex="1" parent="dkug5ZFoNyvDBo68FZNn-19">
          <mxGeometry y="364" width="302" height="26" as="geometry" />
        </mxCell>
        <mxCell id="dkug5ZFoNyvDBo68FZNn-21" value="" style="line;strokeWidth=1;fillColor=none;align=left;verticalAlign=middle;spacingTop=-1;spacingLeft=3;spacingRight=3;rotatable=0;labelPosition=right;points=[];portConstraint=eastwest;strokeColor=inherit;" vertex="1" parent="dkug5ZFoNyvDBo68FZNn-19">
          <mxGeometry y="390" width="302" height="8" as="geometry" />
        </mxCell>
        <mxCell id="dkug5ZFoNyvDBo68FZNn-22" value="+ inOrderTraverse(Node&amp;lt;T&amp;gt; currRoot)&amp;nbsp;&amp;nbsp;" style="text;strokeColor=none;fillColor=none;align=left;verticalAlign=top;spacingLeft=4;spacingRight=4;overflow=hidden;rotatable=0;points=[[0,0.5],[1,0.5]];portConstraint=eastwest;whiteSpace=wrap;html=1;" vertex="1" parent="dkug5ZFoNyvDBo68FZNn-19">
          <mxGeometry y="398" width="302" height="26" as="geometry" />
        </mxCell>
        <mxCell id="dkug5ZFoNyvDBo68FZNn-39" value="+ preOrderTraverse(Node&amp;lt;T&amp;gt; currRoot)&amp;nbsp;&amp;nbsp;" style="text;strokeColor=none;fillColor=none;align=left;verticalAlign=top;spacingLeft=4;spacingRight=4;overflow=hidden;rotatable=0;points=[[0,0.5],[1,0.5]];portConstraint=eastwest;whiteSpace=wrap;html=1;" vertex="1" parent="dkug5ZFoNyvDBo68FZNn-19">
          <mxGeometry y="424" width="302" height="26" as="geometry" />
        </mxCell>
        <mxCell id="dkug5ZFoNyvDBo68FZNn-40" value="+ postOrderTraverse(Node&amp;lt;T&amp;gt; currRoot)&amp;nbsp;&amp;nbsp;" style="text;strokeColor=none;fillColor=none;align=left;verticalAlign=top;spacingLeft=4;spacingRight=4;overflow=hidden;rotatable=0;points=[[0,0.5],[1,0.5]];portConstraint=eastwest;whiteSpace=wrap;html=1;" vertex="1" parent="dkug5ZFoNyvDBo68FZNn-19">
          <mxGeometry y="450" width="302" height="26" as="geometry" />
        </mxCell>
        <mxCell id="dkug5ZFoNyvDBo68FZNn-41" value="+print2D()" style="text;strokeColor=none;fillColor=none;align=left;verticalAlign=top;spacingLeft=4;spacingRight=4;overflow=hidden;rotatable=0;points=[[0,0.5],[1,0.5]];portConstraint=eastwest;whiteSpace=wrap;html=1;" vertex="1" parent="dkug5ZFoNyvDBo68FZNn-19">
          <mxGeometry y="476" width="302" height="26" as="geometry" />
        </mxCell>
        <mxCell id="dkug5ZFoNyvDBo68FZNn-23" value="" style="endArrow=none;dashed=1;html=1;rounded=0;exitX=1;exitY=0.5;exitDx=0;exitDy=0;entryX=0;entryY=0.5;entryDx=0;entryDy=0;" edge="1" parent="WIyWlLk6GJQsqaUBKTNV-1" source="dkug5ZFoNyvDBo68FZNn-4" target="dkug5ZFoNyvDBo68FZNn-26">
          <mxGeometry width="50" height="50" relative="1" as="geometry">
            <mxPoint x="990" y="2770" as="sourcePoint" />
            <mxPoint x="1040" y="2720" as="targetPoint" />
          </mxGeometry>
        </mxCell>
        <mxCell id="dkug5ZFoNyvDBo68FZNn-42" value="&lt;b&gt;Menu.h&lt;/b&gt;" style="swimlane;fontStyle=0;childLayout=stackLayout;horizontal=1;startSize=26;fillColor=none;horizontalStack=0;resizeParent=1;resizeParentMax=0;resizeLast=0;collapsible=1;marginBottom=0;whiteSpace=wrap;html=1;" vertex="1" parent="WIyWlLk6GJQsqaUBKTNV-1">
          <mxGeometry x="1270" y="2840" width="311" height="572" as="geometry" />
        </mxCell>
        <mxCell id="dkug5ZFoNyvDBo68FZNn-43" value="+ mainMenu(BinarySearchTree&amp;lt;City&amp;gt; myTree)" style="text;strokeColor=none;fillColor=none;align=left;verticalAlign=top;spacingLeft=4;spacingRight=4;overflow=hidden;rotatable=0;points=[[0,0.5],[1,0.5]];portConstraint=eastwest;whiteSpace=wrap;html=1;" vertex="1" parent="dkug5ZFoNyvDBo68FZNn-42">
          <mxGeometry y="26" width="311" height="26" as="geometry" />
        </mxCell>
        <mxCell id="dkug5ZFoNyvDBo68FZNn-46" value="+ mainMenu(BinarySearchTree&amp;lt;City&amp;gt; myTree)" style="text;strokeColor=none;fillColor=none;align=left;verticalAlign=top;spacingLeft=4;spacingRight=4;overflow=hidden;rotatable=0;points=[[0,0.5],[1,0.5]];portConstraint=eastwest;whiteSpace=wrap;html=1;" vertex="1" parent="dkug5ZFoNyvDBo68FZNn-42">
          <mxGeometry y="52" width="311" height="26" as="geometry" />
        </mxCell>
        <mxCell id="dkug5ZFoNyvDBo68FZNn-47" value="+ searchMenu(BinarySearchTree&amp;lt;City&amp;gt; myTree)" style="text;strokeColor=none;fillColor=none;align=left;verticalAlign=top;spacingLeft=4;spacingRight=4;overflow=hidden;rotatable=0;points=[[0,0.5],[1,0.5]];portConstraint=eastwest;whiteSpace=wrap;html=1;" vertex="1" parent="dkug5ZFoNyvDBo68FZNn-42">
          <mxGeometry y="78" width="311" height="26" as="geometry" />
        </mxCell>
        <mxCell id="dkug5ZFoNyvDBo68FZNn-48" value="+ searchZip(BinarySearchTree&amp;lt;City&amp;gt; myTree)" style="text;strokeColor=none;fillColor=none;align=left;verticalAlign=top;spacingLeft=4;spacingRight=4;overflow=hidden;rotatable=0;points=[[0,0.5],[1,0.5]];portConstraint=eastwest;whiteSpace=wrap;html=1;" vertex="1" parent="dkug5ZFoNyvDBo68FZNn-42">
          <mxGeometry y="104" width="311" height="26" as="geometry" />
        </mxCell>
        <mxCell id="dkug5ZFoNyvDBo68FZNn-49" value="+ searchId(BinarySearchTree&amp;lt;City&amp;gt; myTree)" style="text;strokeColor=none;fillColor=none;align=left;verticalAlign=top;spacingLeft=4;spacingRight=4;overflow=hidden;rotatable=0;points=[[0,0.5],[1,0.5]];portConstraint=eastwest;whiteSpace=wrap;html=1;" vertex="1" parent="dkug5ZFoNyvDBo68FZNn-42">
          <mxGeometry y="130" width="311" height="26" as="geometry" />
        </mxCell>
        <mxCell id="dkug5ZFoNyvDBo68FZNn-56" value="+ searchArea(BinarySearchTree&amp;lt;City&amp;gt; myTree)" style="text;strokeColor=none;fillColor=none;align=left;verticalAlign=top;spacingLeft=4;spacingRight=4;overflow=hidden;rotatable=0;points=[[0,0.5],[1,0.5]];portConstraint=eastwest;whiteSpace=wrap;html=1;" vertex="1" parent="dkug5ZFoNyvDBo68FZNn-42">
          <mxGeometry y="156" width="311" height="26" as="geometry" />
        </mxCell>
        <mxCell id="dkug5ZFoNyvDBo68FZNn-57" value="+ reportsMenu(BinarySearchTree&amp;lt;City&amp;gt; myTree)" style="text;strokeColor=none;fillColor=none;align=left;verticalAlign=top;spacingLeft=4;spacingRight=4;overflow=hidden;rotatable=0;points=[[0,0.5],[1,0.5]];portConstraint=eastwest;whiteSpace=wrap;html=1;" vertex="1" parent="dkug5ZFoNyvDBo68FZNn-42">
          <mxGeometry y="182" width="311" height="26" as="geometry" />
        </mxCell>
        <mxCell id="dkug5ZFoNyvDBo68FZNn-58" value="+ listCities(BinarySearchTree&amp;lt;City&amp;gt; myTree)" style="text;strokeColor=none;fillColor=none;align=left;verticalAlign=top;spacingLeft=4;spacingRight=4;overflow=hidden;rotatable=0;points=[[0,0.5],[1,0.5]];portConstraint=eastwest;whiteSpace=wrap;html=1;" vertex="1" parent="dkug5ZFoNyvDBo68FZNn-42">
          <mxGeometry y="208" width="311" height="26" as="geometry" />
        </mxCell>
        <mxCell id="dkug5ZFoNyvDBo68FZNn-59" value="+ searchDensity(BinarySearchTree&amp;lt;City&amp;gt; myTree)" style="text;strokeColor=none;fillColor=none;align=left;verticalAlign=top;spacingLeft=4;spacingRight=4;overflow=hidden;rotatable=0;points=[[0,0.5],[1,0.5]];portConstraint=eastwest;whiteSpace=wrap;html=1;" vertex="1" parent="dkug5ZFoNyvDBo68FZNn-42">
          <mxGeometry y="234" width="311" height="26" as="geometry" />
        </mxCell>
        <mxCell id="dkug5ZFoNyvDBo68FZNn-60" value="+ listTimeZones(BinarySearchTree&amp;lt;City&amp;gt; myTree)" style="text;strokeColor=none;fillColor=none;align=left;verticalAlign=top;spacingLeft=4;spacingRight=4;overflow=hidden;rotatable=0;points=[[0,0.5],[1,0.5]];portConstraint=eastwest;whiteSpace=wrap;html=1;" vertex="1" parent="dkug5ZFoNyvDBo68FZNn-42">
          <mxGeometry y="260" width="311" height="26" as="geometry" />
        </mxCell>
        <mxCell id="dkug5ZFoNyvDBo68FZNn-61" value="+ postOrder(BinarySearchTree&amp;lt;City&amp;gt; myTree)" style="text;strokeColor=none;fillColor=none;align=left;verticalAlign=top;spacingLeft=4;spacingRight=4;overflow=hidden;rotatable=0;points=[[0,0.5],[1,0.5]];portConstraint=eastwest;whiteSpace=wrap;html=1;" vertex="1" parent="dkug5ZFoNyvDBo68FZNn-42">
          <mxGeometry y="286" width="311" height="26" as="geometry" />
        </mxCell>
        <mxCell id="dkug5ZFoNyvDBo68FZNn-63" value="+ maxminMenu(BinarySearchTree&amp;lt;City&amp;gt; myTree)" style="text;strokeColor=none;fillColor=none;align=left;verticalAlign=top;spacingLeft=4;spacingRight=4;overflow=hidden;rotatable=0;points=[[0,0.5],[1,0.5]];portConstraint=eastwest;whiteSpace=wrap;html=1;" vertex="1" parent="dkug5ZFoNyvDBo68FZNn-42">
          <mxGeometry y="312" width="311" height="26" as="geometry" />
        </mxCell>
        <mxCell id="dkug5ZFoNyvDBo68FZNn-62" value="+ maxLandArea(BinarySearchTree&amp;lt;City&amp;gt; myTree)" style="text;strokeColor=none;fillColor=none;align=left;verticalAlign=top;spacingLeft=4;spacingRight=4;overflow=hidden;rotatable=0;points=[[0,0.5],[1,0.5]];portConstraint=eastwest;whiteSpace=wrap;html=1;" vertex="1" parent="dkug5ZFoNyvDBo68FZNn-42">
          <mxGeometry y="338" width="311" height="26" as="geometry" />
        </mxCell>
        <mxCell id="dkug5ZFoNyvDBo68FZNn-64" value="+ maxPopulation(BinarySearchTree&amp;lt;City&amp;gt; myTree)" style="text;strokeColor=none;fillColor=none;align=left;verticalAlign=top;spacingLeft=4;spacingRight=4;overflow=hidden;rotatable=0;points=[[0,0.5],[1,0.5]];portConstraint=eastwest;whiteSpace=wrap;html=1;" vertex="1" parent="dkug5ZFoNyvDBo68FZNn-42">
          <mxGeometry y="364" width="311" height="26" as="geometry" />
        </mxCell>
        <mxCell id="dkug5ZFoNyvDBo68FZNn-65" value="+ minLandArea(BinarySearchTree&amp;lt;City&amp;gt; myTree)" style="text;strokeColor=none;fillColor=none;align=left;verticalAlign=top;spacingLeft=4;spacingRight=4;overflow=hidden;rotatable=0;points=[[0,0.5],[1,0.5]];portConstraint=eastwest;whiteSpace=wrap;html=1;" vertex="1" parent="dkug5ZFoNyvDBo68FZNn-42">
          <mxGeometry y="390" width="311" height="26" as="geometry" />
        </mxCell>
        <mxCell id="dkug5ZFoNyvDBo68FZNn-66" value="+ minPopulation(BinarySearchTree&amp;lt;City&amp;gt; myTree)" style="text;strokeColor=none;fillColor=none;align=left;verticalAlign=top;spacingLeft=4;spacingRight=4;overflow=hidden;rotatable=0;points=[[0,0.5],[1,0.5]];portConstraint=eastwest;whiteSpace=wrap;html=1;" vertex="1" parent="dkug5ZFoNyvDBo68FZNn-42">
          <mxGeometry y="416" width="311" height="26" as="geometry" />
        </mxCell>
        <mxCell id="dkug5ZFoNyvDBo68FZNn-67" value="+ maxDensity(BinarySearchTree&amp;lt;City&amp;gt; myTree)" style="text;strokeColor=none;fillColor=none;align=left;verticalAlign=top;spacingLeft=4;spacingRight=4;overflow=hidden;rotatable=0;points=[[0,0.5],[1,0.5]];portConstraint=eastwest;whiteSpace=wrap;html=1;" vertex="1" parent="dkug5ZFoNyvDBo68FZNn-42">
          <mxGeometry y="442" width="311" height="26" as="geometry" />
        </mxCell>
        <mxCell id="dkug5ZFoNyvDBo68FZNn-68" value="+ minDensity(BinarySearchTree&amp;lt;City&amp;gt; myTree)" style="text;strokeColor=none;fillColor=none;align=left;verticalAlign=top;spacingLeft=4;spacingRight=4;overflow=hidden;rotatable=0;points=[[0,0.5],[1,0.5]];portConstraint=eastwest;whiteSpace=wrap;html=1;" vertex="1" parent="dkug5ZFoNyvDBo68FZNn-42">
          <mxGeometry y="468" width="311" height="26" as="geometry" />
        </mxCell>
        <mxCell id="dkug5ZFoNyvDBo68FZNn-69" value="+ editMenu(BinarySearchTree&amp;lt;City&amp;gt; myTree)" style="text;strokeColor=none;fillColor=none;align=left;verticalAlign=top;spacingLeft=4;spacingRight=4;overflow=hidden;rotatable=0;points=[[0,0.5],[1,0.5]];portConstraint=eastwest;whiteSpace=wrap;html=1;" vertex="1" parent="dkug5ZFoNyvDBo68FZNn-42">
          <mxGeometry y="494" width="311" height="26" as="geometry" />
        </mxCell>
        <mxCell id="dkug5ZFoNyvDBo68FZNn-70" value="+ editPopulation(BinarySearchTree&amp;lt;City&amp;gt; myTree)" style="text;strokeColor=none;fillColor=none;align=left;verticalAlign=top;spacingLeft=4;spacingRight=4;overflow=hidden;rotatable=0;points=[[0,0.5],[1,0.5]];portConstraint=eastwest;whiteSpace=wrap;html=1;" vertex="1" parent="dkug5ZFoNyvDBo68FZNn-42">
          <mxGeometry y="520" width="311" height="26" as="geometry" />
        </mxCell>
        <mxCell id="dkug5ZFoNyvDBo68FZNn-71" value="+ editArea(BinarySearchTree&amp;lt;City&amp;gt; myTree)" style="text;strokeColor=none;fillColor=none;align=left;verticalAlign=top;spacingLeft=4;spacingRight=4;overflow=hidden;rotatable=0;points=[[0,0.5],[1,0.5]];portConstraint=eastwest;whiteSpace=wrap;html=1;" vertex="1" parent="dkug5ZFoNyvDBo68FZNn-42">
          <mxGeometry y="546" width="311" height="26" as="geometry" />
        </mxCell>
        <mxCell id="dkug5ZFoNyvDBo68FZNn-74" value="" style="endArrow=none;dashed=1;html=1;rounded=0;entryX=1;entryY=0.5;entryDx=0;entryDy=0;exitX=0;exitY=0.5;exitDx=0;exitDy=0;" edge="1" parent="WIyWlLk6GJQsqaUBKTNV-1" source="dkug5ZFoNyvDBo68FZNn-47" target="dkug5ZFoNyvDBo68FZNn-29">
          <mxGeometry width="50" height="50" relative="1" as="geometry">
            <mxPoint x="1080" y="3280" as="sourcePoint" />
            <mxPoint x="1130" y="3230" as="targetPoint" />
          </mxGeometry>
        </mxCell>
        <mxCell id="dkug5ZFoNyvDBo68FZNn-97" value="&lt;b&gt;menu.cpp&lt;/b&gt;" style="swimlane;fontStyle=0;childLayout=stackLayout;horizontal=1;startSize=26;fillColor=none;horizontalStack=0;resizeParent=1;resizeParentMax=0;resizeLast=0;collapsible=1;marginBottom=0;whiteSpace=wrap;html=1;" vertex="1" parent="WIyWlLk6GJQsqaUBKTNV-1">
          <mxGeometry x="1070" y="2560" width="140" height="52" as="geometry" />
        </mxCell>
        <mxCell id="dkug5ZFoNyvDBo68FZNn-98" value="+ printHeader()" style="text;strokeColor=none;fillColor=none;align=left;verticalAlign=top;spacingLeft=4;spacingRight=4;overflow=hidden;rotatable=0;points=[[0,0.5],[1,0.5]];portConstraint=eastwest;whiteSpace=wrap;html=1;" vertex="1" parent="dkug5ZFoNyvDBo68FZNn-97">
          <mxGeometry y="26" width="140" height="26" as="geometry" />
        </mxCell>
        <mxCell id="dkug5ZFoNyvDBo68FZNn-101" value="" style="endArrow=none;dashed=1;html=1;rounded=0;entryX=0.066;entryY=-0.003;entryDx=0;entryDy=0;exitX=0.964;exitY=1.038;exitDx=0;exitDy=0;exitPerimeter=0;entryPerimeter=0;" edge="1" parent="WIyWlLk6GJQsqaUBKTNV-1" source="dkug5ZFoNyvDBo68FZNn-98" target="dkug5ZFoNyvDBo68FZNn-42">
          <mxGeometry width="50" height="50" relative="1" as="geometry">
            <mxPoint x="1180" y="3200" as="sourcePoint" />
            <mxPoint x="1230" y="3150" as="targetPoint" />
          </mxGeometry>
        </mxCell>
        <mxCell id="dkug5ZFoNyvDBo68FZNn-102" value="&lt;b&gt;Visitor&lt;/b&gt;" style="swimlane;fontStyle=0;childLayout=stackLayout;horizontal=1;startSize=26;fillColor=none;horizontalStack=0;resizeParent=1;resizeParentMax=0;resizeLast=0;collapsible=1;marginBottom=0;whiteSpace=wrap;html=1;" vertex="1" parent="WIyWlLk6GJQsqaUBKTNV-1">
          <mxGeometry x="1130" y="1260" width="220" height="104" as="geometry" />
        </mxCell>
        <mxCell id="dkug5ZFoNyvDBo68FZNn-103" value="+ Visitor()" style="text;strokeColor=none;fillColor=none;align=left;verticalAlign=top;spacingLeft=4;spacingRight=4;overflow=hidden;rotatable=0;points=[[0,0.5],[1,0.5]];portConstraint=eastwest;whiteSpace=wrap;html=1;" vertex="1" parent="dkug5ZFoNyvDBo68FZNn-102">
          <mxGeometry y="26" width="220" height="26" as="geometry" />
        </mxCell>
        <mxCell id="dkug5ZFoNyvDBo68FZNn-104" value="+ ~Visitor()" style="text;strokeColor=none;fillColor=none;align=left;verticalAlign=top;spacingLeft=4;spacingRight=4;overflow=hidden;rotatable=0;points=[[0,0.5],[1,0.5]];portConstraint=eastwest;whiteSpace=wrap;html=1;" vertex="1" parent="dkug5ZFoNyvDBo68FZNn-102">
          <mxGeometry y="52" width="220" height="26" as="geometry" />
        </mxCell>
        <mxCell id="dkug5ZFoNyvDBo68FZNn-105" value="+ visit(City city)" style="text;strokeColor=none;fillColor=none;align=left;verticalAlign=top;spacingLeft=4;spacingRight=4;overflow=hidden;rotatable=0;points=[[0,0.5],[1,0.5]];portConstraint=eastwest;whiteSpace=wrap;html=1;" vertex="1" parent="dkug5ZFoNyvDBo68FZNn-102">
          <mxGeometry y="78" width="220" height="26" as="geometry" />
        </mxCell>
        <mxCell id="dkug5ZFoNyvDBo68FZNn-106" value="listAllCities" style="swimlane;fontStyle=1;align=center;verticalAlign=top;childLayout=stackLayout;horizontal=1;startSize=26;horizontalStack=0;resizeParent=1;resizeParentMax=0;resizeLast=0;collapsible=1;marginBottom=0;whiteSpace=wrap;html=1;" vertex="1" parent="WIyWlLk6GJQsqaUBKTNV-1">
          <mxGeometry x="1800" y="1422" width="290" height="164" as="geometry" />
        </mxCell>
        <mxCell id="dkug5ZFoNyvDBo68FZNn-114" value="+ listAllCities(const vector&amp;lt;City&amp;gt; allCities)" style="text;strokeColor=none;fillColor=none;align=left;verticalAlign=top;spacingLeft=4;spacingRight=4;overflow=hidden;rotatable=0;points=[[0,0.5],[1,0.5]];portConstraint=eastwest;whiteSpace=wrap;html=1;" vertex="1" parent="dkug5ZFoNyvDBo68FZNn-106">
          <mxGeometry y="26" width="290" height="26" as="geometry" />
        </mxCell>
        <mxCell id="dkug5ZFoNyvDBo68FZNn-111" value="+ ~listAllCities()" style="text;strokeColor=none;fillColor=none;align=left;verticalAlign=top;spacingLeft=4;spacingRight=4;overflow=hidden;rotatable=0;points=[[0,0.5],[1,0.5]];portConstraint=eastwest;whiteSpace=wrap;html=1;" vertex="1" parent="dkug5ZFoNyvDBo68FZNn-106">
          <mxGeometry y="52" width="290" height="26" as="geometry" />
        </mxCell>
        <mxCell id="dkug5ZFoNyvDBo68FZNn-110" value="+ visit(City city)" style="text;strokeColor=none;fillColor=none;align=left;verticalAlign=top;spacingLeft=4;spacingRight=4;overflow=hidden;rotatable=0;points=[[0,0.5],[1,0.5]];portConstraint=eastwest;whiteSpace=wrap;html=1;" vertex="1" parent="dkug5ZFoNyvDBo68FZNn-106">
          <mxGeometry y="78" width="290" height="26" as="geometry" />
        </mxCell>
        <mxCell id="dkug5ZFoNyvDBo68FZNn-113" value="+ getCities() : vector&amp;lt;City&amp;gt;" style="text;strokeColor=none;fillColor=none;align=left;verticalAlign=top;spacingLeft=4;spacingRight=4;overflow=hidden;rotatable=0;points=[[0,0.5],[1,0.5]];portConstraint=eastwest;whiteSpace=wrap;html=1;" vertex="1" parent="dkug5ZFoNyvDBo68FZNn-106">
          <mxGeometry y="104" width="290" height="26" as="geometry" />
        </mxCell>
        <mxCell id="dkug5ZFoNyvDBo68FZNn-107" value="- cities : vector&amp;lt;City&amp;gt;" style="text;strokeColor=none;fillColor=none;align=left;verticalAlign=top;spacingLeft=4;spacingRight=4;overflow=hidden;rotatable=0;points=[[0,0.5],[1,0.5]];portConstraint=eastwest;whiteSpace=wrap;html=1;" vertex="1" parent="dkug5ZFoNyvDBo68FZNn-106">
          <mxGeometry y="130" width="290" height="26" as="geometry" />
        </mxCell>
        <mxCell id="dkug5ZFoNyvDBo68FZNn-108" value="" style="line;strokeWidth=1;fillColor=none;align=left;verticalAlign=middle;spacingTop=-1;spacingLeft=3;spacingRight=3;rotatable=0;labelPosition=right;points=[];portConstraint=eastwest;strokeColor=inherit;" vertex="1" parent="dkug5ZFoNyvDBo68FZNn-106">
          <mxGeometry y="156" width="290" height="8" as="geometry" />
        </mxCell>
        <mxCell id="dkug5ZFoNyvDBo68FZNn-115" value="&lt;b&gt;main&lt;/b&gt;" style="swimlane;fontStyle=0;childLayout=stackLayout;horizontal=1;startSize=26;fillColor=none;horizontalStack=0;resizeParent=1;resizeParentMax=0;resizeLast=0;collapsible=1;marginBottom=0;whiteSpace=wrap;html=1;" vertex="1" parent="WIyWlLk6GJQsqaUBKTNV-1">
          <mxGeometry x="1370" y="2370" width="260" height="104" as="geometry" />
        </mxCell>
        <mxCell id="dkug5ZFoNyvDBo68FZNn-116" value="main()" style="text;strokeColor=none;fillColor=none;align=left;verticalAlign=top;spacingLeft=4;spacingRight=4;overflow=hidden;rotatable=0;points=[[0,0.5],[1,0.5]];portConstraint=eastwest;whiteSpace=wrap;html=1;" vertex="1" parent="dkug5ZFoNyvDBo68FZNn-115">
          <mxGeometry y="26" width="260" height="26" as="geometry" />
        </mxCell>
        <mxCell id="dkug5ZFoNyvDBo68FZNn-117" value="buildTree(BinarySearchTree&amp;lt;City&amp;gt; myTree)" style="text;strokeColor=none;fillColor=none;align=left;verticalAlign=top;spacingLeft=4;spacingRight=4;overflow=hidden;rotatable=0;points=[[0,0.5],[1,0.5]];portConstraint=eastwest;whiteSpace=wrap;html=1;" vertex="1" parent="dkug5ZFoNyvDBo68FZNn-115">
          <mxGeometry y="52" width="260" height="26" as="geometry" />
        </mxCell>
        <mxCell id="dkug5ZFoNyvDBo68FZNn-118" value="build()" style="text;strokeColor=none;fillColor=none;align=left;verticalAlign=top;spacingLeft=4;spacingRight=4;overflow=hidden;rotatable=0;points=[[0,0.5],[1,0.5]];portConstraint=eastwest;whiteSpace=wrap;html=1;" vertex="1" parent="dkug5ZFoNyvDBo68FZNn-115">
          <mxGeometry y="78" width="260" height="26" as="geometry" />
        </mxCell>
        <mxCell id="dkug5ZFoNyvDBo68FZNn-120" value="" style="endArrow=classic;html=1;rounded=0;entryX=1;entryY=0.385;entryDx=0;entryDy=0;entryPerimeter=0;" edge="1" parent="WIyWlLk6GJQsqaUBKTNV-1" source="dkug5ZFoNyvDBo68FZNn-118" target="dkug5ZFoNyvDBo68FZNn-97">
          <mxGeometry width="50" height="50" relative="1" as="geometry">
            <mxPoint x="1275" y="3269" as="sourcePoint" />
            <mxPoint x="1325" y="3219" as="targetPoint" />
          </mxGeometry>
        </mxCell>
        <mxCell id="dkug5ZFoNyvDBo68FZNn-121" value="Extends" style="endArrow=block;endSize=16;endFill=0;html=1;rounded=0;exitX=0.477;exitY=-0.003;exitDx=0;exitDy=0;exitPerimeter=0;entryX=0.851;entryY=1.097;entryDx=0;entryDy=0;entryPerimeter=0;" edge="1" parent="WIyWlLk6GJQsqaUBKTNV-1" source="dkug5ZFoNyvDBo68FZNn-106" target="dkug5ZFoNyvDBo68FZNn-105">
          <mxGeometry width="160" relative="1" as="geometry">
            <mxPoint x="1617.1999999999998" y="1375.35" as="sourcePoint" />
            <mxPoint x="1750" y="1450" as="targetPoint" />
          </mxGeometry>
        </mxCell>
        <mxCell id="dkug5ZFoNyvDBo68FZNn-125" value="&lt;b&gt;ListByTimeZone&lt;/b&gt;" style="swimlane;fontStyle=0;childLayout=stackLayout;horizontal=1;startSize=26;fillColor=none;horizontalStack=0;resizeParent=1;resizeParentMax=0;resizeLast=0;collapsible=1;marginBottom=0;whiteSpace=wrap;html=1;" vertex="1" parent="WIyWlLk6GJQsqaUBKTNV-1">
          <mxGeometry x="1450" y="1440" width="310" height="156" as="geometry" />
        </mxCell>
        <mxCell id="dkug5ZFoNyvDBo68FZNn-126" value="+ ListByTimeZone(const vector&amp;lt;City&amp;gt; allZones)&lt;span style=&quot;white-space: pre;&quot;&gt;&#x9;&lt;/span&gt;&lt;span style=&quot;white-space: pre;&quot;&gt;&#x9;&lt;/span&gt;" style="text;strokeColor=none;fillColor=none;align=left;verticalAlign=top;spacingLeft=4;spacingRight=4;overflow=hidden;rotatable=0;points=[[0,0.5],[1,0.5]];portConstraint=eastwest;whiteSpace=wrap;html=1;" vertex="1" parent="dkug5ZFoNyvDBo68FZNn-125">
          <mxGeometry y="26" width="310" height="26" as="geometry" />
        </mxCell>
        <mxCell id="dkug5ZFoNyvDBo68FZNn-127" value="+ ~ListByTimeZone()" style="text;strokeColor=none;fillColor=none;align=left;verticalAlign=top;spacingLeft=4;spacingRight=4;overflow=hidden;rotatable=0;points=[[0,0.5],[1,0.5]];portConstraint=eastwest;whiteSpace=wrap;html=1;" vertex="1" parent="dkug5ZFoNyvDBo68FZNn-125">
          <mxGeometry y="52" width="310" height="26" as="geometry" />
        </mxCell>
        <mxCell id="dkug5ZFoNyvDBo68FZNn-128" value="+ visit(City city)" style="text;strokeColor=none;fillColor=none;align=left;verticalAlign=top;spacingLeft=4;spacingRight=4;overflow=hidden;rotatable=0;points=[[0,0.5],[1,0.5]];portConstraint=eastwest;whiteSpace=wrap;html=1;" vertex="1" parent="dkug5ZFoNyvDBo68FZNn-125">
          <mxGeometry y="78" width="310" height="26" as="geometry" />
        </mxCell>
        <mxCell id="dkug5ZFoNyvDBo68FZNn-129" value="+ getTimeZones() : vector&amp;lt;City&amp;gt;" style="text;strokeColor=none;fillColor=none;align=left;verticalAlign=top;spacingLeft=4;spacingRight=4;overflow=hidden;rotatable=0;points=[[0,0.5],[1,0.5]];portConstraint=eastwest;whiteSpace=wrap;html=1;" vertex="1" parent="dkug5ZFoNyvDBo68FZNn-125">
          <mxGeometry y="104" width="310" height="26" as="geometry" />
        </mxCell>
        <mxCell id="dkug5ZFoNyvDBo68FZNn-130" value="- cities : vector&amp;lt;City&amp;gt;" style="text;strokeColor=none;fillColor=none;align=left;verticalAlign=top;spacingLeft=4;spacingRight=4;overflow=hidden;rotatable=0;points=[[0,0.5],[1,0.5]];portConstraint=eastwest;whiteSpace=wrap;html=1;" vertex="1" parent="dkug5ZFoNyvDBo68FZNn-125">
          <mxGeometry y="130" width="310" height="26" as="geometry" />
        </mxCell>
        <mxCell id="dkug5ZFoNyvDBo68FZNn-132" value="Extends" style="endArrow=block;endSize=16;endFill=0;html=1;rounded=0;exitX=0.059;exitY=0.004;exitDx=0;exitDy=0;exitPerimeter=0;entryX=0.717;entryY=1.188;entryDx=0;entryDy=0;entryPerimeter=0;" edge="1" parent="WIyWlLk6GJQsqaUBKTNV-1" source="dkug5ZFoNyvDBo68FZNn-125" target="dkug5ZFoNyvDBo68FZNn-105">
          <mxGeometry width="160" relative="1" as="geometry">
            <mxPoint x="1273" y="1500" as="sourcePoint" />
            <mxPoint x="1610" y="1347" as="targetPoint" />
          </mxGeometry>
        </mxCell>
        <mxCell id="dkug5ZFoNyvDBo68FZNn-133" value="&lt;b&gt;MaxDensity&lt;/b&gt;" style="swimlane;fontStyle=0;childLayout=stackLayout;horizontal=1;startSize=26;fillColor=none;horizontalStack=0;resizeParent=1;resizeParentMax=0;resizeLast=0;collapsible=1;marginBottom=0;whiteSpace=wrap;html=1;" vertex="1" parent="WIyWlLk6GJQsqaUBKTNV-1">
          <mxGeometry x="2140" y="1330" width="310" height="208" as="geometry" />
        </mxCell>
        <mxCell id="dkug5ZFoNyvDBo68FZNn-134" value="+ MaxDensity(const vector&amp;lt;City&amp;gt; allZones)&lt;span style=&quot;white-space: pre;&quot;&gt;&#x9;&lt;/span&gt;&lt;span style=&quot;white-space: pre;&quot;&gt;&#x9;&lt;/span&gt;" style="text;strokeColor=none;fillColor=none;align=left;verticalAlign=top;spacingLeft=4;spacingRight=4;overflow=hidden;rotatable=0;points=[[0,0.5],[1,0.5]];portConstraint=eastwest;whiteSpace=wrap;html=1;" vertex="1" parent="dkug5ZFoNyvDBo68FZNn-133">
          <mxGeometry y="26" width="310" height="26" as="geometry" />
        </mxCell>
        <mxCell id="dkug5ZFoNyvDBo68FZNn-135" value="+ ~MaxDensity()" style="text;strokeColor=none;fillColor=none;align=left;verticalAlign=top;spacingLeft=4;spacingRight=4;overflow=hidden;rotatable=0;points=[[0,0.5],[1,0.5]];portConstraint=eastwest;whiteSpace=wrap;html=1;" vertex="1" parent="dkug5ZFoNyvDBo68FZNn-133">
          <mxGeometry y="52" width="310" height="26" as="geometry" />
        </mxCell>
        <mxCell id="dkug5ZFoNyvDBo68FZNn-136" value="+ visit(City city)" style="text;strokeColor=none;fillColor=none;align=left;verticalAlign=top;spacingLeft=4;spacingRight=4;overflow=hidden;rotatable=0;points=[[0,0.5],[1,0.5]];portConstraint=eastwest;whiteSpace=wrap;html=1;" vertex="1" parent="dkug5ZFoNyvDBo68FZNn-133">
          <mxGeometry y="78" width="310" height="26" as="geometry" />
        </mxCell>
        <mxCell id="dkug5ZFoNyvDBo68FZNn-137" value="+ getMaxDensity() : int" style="text;strokeColor=none;fillColor=none;align=left;verticalAlign=top;spacingLeft=4;spacingRight=4;overflow=hidden;rotatable=0;points=[[0,0.5],[1,0.5]];portConstraint=eastwest;whiteSpace=wrap;html=1;" vertex="1" parent="dkug5ZFoNyvDBo68FZNn-133">
          <mxGeometry y="104" width="310" height="26" as="geometry" />
        </mxCell>
        <mxCell id="dkug5ZFoNyvDBo68FZNn-138" value="+ getMaxCity : City" style="text;strokeColor=none;fillColor=none;align=left;verticalAlign=top;spacingLeft=4;spacingRight=4;overflow=hidden;rotatable=0;points=[[0,0.5],[1,0.5]];portConstraint=eastwest;whiteSpace=wrap;html=1;" vertex="1" parent="dkug5ZFoNyvDBo68FZNn-133">
          <mxGeometry y="130" width="310" height="26" as="geometry" />
        </mxCell>
        <mxCell id="dkug5ZFoNyvDBo68FZNn-139" value="- maxDensity : int" style="text;strokeColor=none;fillColor=none;align=left;verticalAlign=top;spacingLeft=4;spacingRight=4;overflow=hidden;rotatable=0;points=[[0,0.5],[1,0.5]];portConstraint=eastwest;whiteSpace=wrap;html=1;" vertex="1" parent="dkug5ZFoNyvDBo68FZNn-133">
          <mxGeometry y="156" width="310" height="26" as="geometry" />
        </mxCell>
        <mxCell id="dkug5ZFoNyvDBo68FZNn-140" value="- theCity : City" style="text;strokeColor=none;fillColor=none;align=left;verticalAlign=top;spacingLeft=4;spacingRight=4;overflow=hidden;rotatable=0;points=[[0,0.5],[1,0.5]];portConstraint=eastwest;whiteSpace=wrap;html=1;" vertex="1" parent="dkug5ZFoNyvDBo68FZNn-133">
          <mxGeometry y="182" width="310" height="26" as="geometry" />
        </mxCell>
        <mxCell id="dkug5ZFoNyvDBo68FZNn-142" value="&lt;b&gt;MaxLandArea&lt;/b&gt;" style="swimlane;fontStyle=0;childLayout=stackLayout;horizontal=1;startSize=26;fillColor=none;horizontalStack=0;resizeParent=1;resizeParentMax=0;resizeLast=0;collapsible=1;marginBottom=0;whiteSpace=wrap;html=1;" vertex="1" parent="WIyWlLk6GJQsqaUBKTNV-1">
          <mxGeometry x="2570" y="1182" width="310" height="182" as="geometry" />
        </mxCell>
        <mxCell id="dkug5ZFoNyvDBo68FZNn-143" value="+ MaxLandArea(const vector&amp;lt;City&amp;gt; allZones)&lt;span style=&quot;white-space: pre;&quot;&gt;&#x9;&lt;/span&gt;&lt;span style=&quot;white-space: pre;&quot;&gt;&#x9;&lt;/span&gt;" style="text;strokeColor=none;fillColor=none;align=left;verticalAlign=top;spacingLeft=4;spacingRight=4;overflow=hidden;rotatable=0;points=[[0,0.5],[1,0.5]];portConstraint=eastwest;whiteSpace=wrap;html=1;" vertex="1" parent="dkug5ZFoNyvDBo68FZNn-142">
          <mxGeometry y="26" width="310" height="26" as="geometry" />
        </mxCell>
        <mxCell id="dkug5ZFoNyvDBo68FZNn-144" value="+ ~MaxLandArea()" style="text;strokeColor=none;fillColor=none;align=left;verticalAlign=top;spacingLeft=4;spacingRight=4;overflow=hidden;rotatable=0;points=[[0,0.5],[1,0.5]];portConstraint=eastwest;whiteSpace=wrap;html=1;" vertex="1" parent="dkug5ZFoNyvDBo68FZNn-142">
          <mxGeometry y="52" width="310" height="26" as="geometry" />
        </mxCell>
        <mxCell id="dkug5ZFoNyvDBo68FZNn-145" value="+ visit(City city)" style="text;strokeColor=none;fillColor=none;align=left;verticalAlign=top;spacingLeft=4;spacingRight=4;overflow=hidden;rotatable=0;points=[[0,0.5],[1,0.5]];portConstraint=eastwest;whiteSpace=wrap;html=1;" vertex="1" parent="dkug5ZFoNyvDBo68FZNn-142">
          <mxGeometry y="78" width="310" height="26" as="geometry" />
        </mxCell>
        <mxCell id="dkug5ZFoNyvDBo68FZNn-146" value="+ getMaxArea() : City" style="text;strokeColor=none;fillColor=none;align=left;verticalAlign=top;spacingLeft=4;spacingRight=4;overflow=hidden;rotatable=0;points=[[0,0.5],[1,0.5]];portConstraint=eastwest;whiteSpace=wrap;html=1;" vertex="1" parent="dkug5ZFoNyvDBo68FZNn-142">
          <mxGeometry y="104" width="310" height="26" as="geometry" />
        </mxCell>
        <mxCell id="dkug5ZFoNyvDBo68FZNn-148" value="- maxArea: int" style="text;strokeColor=none;fillColor=none;align=left;verticalAlign=top;spacingLeft=4;spacingRight=4;overflow=hidden;rotatable=0;points=[[0,0.5],[1,0.5]];portConstraint=eastwest;whiteSpace=wrap;html=1;" vertex="1" parent="dkug5ZFoNyvDBo68FZNn-142">
          <mxGeometry y="130" width="310" height="26" as="geometry" />
        </mxCell>
        <mxCell id="dkug5ZFoNyvDBo68FZNn-149" value="- maxCity : City" style="text;strokeColor=none;fillColor=none;align=left;verticalAlign=top;spacingLeft=4;spacingRight=4;overflow=hidden;rotatable=0;points=[[0,0.5],[1,0.5]];portConstraint=eastwest;whiteSpace=wrap;html=1;" vertex="1" parent="dkug5ZFoNyvDBo68FZNn-142">
          <mxGeometry y="156" width="310" height="26" as="geometry" />
        </mxCell>
        <mxCell id="dkug5ZFoNyvDBo68FZNn-150" value="Extends" style="endArrow=block;endSize=16;endFill=0;html=1;rounded=0;exitX=0;exitY=0.5;exitDx=0;exitDy=0;entryX=1;entryY=0.5;entryDx=0;entryDy=0;" edge="1" parent="WIyWlLk6GJQsqaUBKTNV-1" source="dkug5ZFoNyvDBo68FZNn-144" target="dkug5ZFoNyvDBo68FZNn-105">
          <mxGeometry width="160" relative="1" as="geometry">
            <mxPoint x="2001" y="1336" as="sourcePoint" />
            <mxPoint x="1820" y="1170" as="targetPoint" />
          </mxGeometry>
        </mxCell>
        <mxCell id="dkug5ZFoNyvDBo68FZNn-151" value="Extends" style="endArrow=block;endSize=16;endFill=0;html=1;rounded=0;exitX=0.306;exitY=-0.006;exitDx=0;exitDy=0;exitPerimeter=0;entryX=0.98;entryY=1.144;entryDx=0;entryDy=0;entryPerimeter=0;" edge="1" parent="WIyWlLk6GJQsqaUBKTNV-1" source="dkug5ZFoNyvDBo68FZNn-133" target="dkug5ZFoNyvDBo68FZNn-105">
          <mxGeometry width="160" relative="1" as="geometry">
            <mxPoint x="1886" y="1520" as="sourcePoint" />
            <mxPoint x="1705" y="1354" as="targetPoint" />
          </mxGeometry>
        </mxCell>
        <mxCell id="dkug5ZFoNyvDBo68FZNn-152" value="&lt;b&gt;MaxPop&lt;/b&gt;" style="swimlane;fontStyle=0;childLayout=stackLayout;horizontal=1;startSize=26;fillColor=none;horizontalStack=0;resizeParent=1;resizeParentMax=0;resizeLast=0;collapsible=1;marginBottom=0;whiteSpace=wrap;html=1;" vertex="1" parent="WIyWlLk6GJQsqaUBKTNV-1">
          <mxGeometry x="2230" y="1050" width="310" height="182" as="geometry" />
        </mxCell>
        <mxCell id="dkug5ZFoNyvDBo68FZNn-153" value="+&amp;nbsp;&lt;span style=&quot;text-align: center;&quot;&gt;MaxPop&lt;/span&gt;(const vector&amp;lt;City&amp;gt; allZones)&lt;span style=&quot;white-space: pre;&quot;&gt;&#x9;&lt;/span&gt;&lt;span style=&quot;white-space: pre;&quot;&gt;&#x9;&lt;/span&gt;" style="text;strokeColor=none;fillColor=none;align=left;verticalAlign=top;spacingLeft=4;spacingRight=4;overflow=hidden;rotatable=0;points=[[0,0.5],[1,0.5]];portConstraint=eastwest;whiteSpace=wrap;html=1;" vertex="1" parent="dkug5ZFoNyvDBo68FZNn-152">
          <mxGeometry y="26" width="310" height="26" as="geometry" />
        </mxCell>
        <mxCell id="dkug5ZFoNyvDBo68FZNn-154" value="+ ~&lt;span style=&quot;text-align: center;&quot;&gt;MaxPop&lt;/span&gt;()" style="text;strokeColor=none;fillColor=none;align=left;verticalAlign=top;spacingLeft=4;spacingRight=4;overflow=hidden;rotatable=0;points=[[0,0.5],[1,0.5]];portConstraint=eastwest;whiteSpace=wrap;html=1;" vertex="1" parent="dkug5ZFoNyvDBo68FZNn-152">
          <mxGeometry y="52" width="310" height="26" as="geometry" />
        </mxCell>
        <mxCell id="dkug5ZFoNyvDBo68FZNn-155" value="+ visit(City city)" style="text;strokeColor=none;fillColor=none;align=left;verticalAlign=top;spacingLeft=4;spacingRight=4;overflow=hidden;rotatable=0;points=[[0,0.5],[1,0.5]];portConstraint=eastwest;whiteSpace=wrap;html=1;" vertex="1" parent="dkug5ZFoNyvDBo68FZNn-152">
          <mxGeometry y="78" width="310" height="26" as="geometry" />
        </mxCell>
        <mxCell id="dkug5ZFoNyvDBo68FZNn-156" value="+ getMaxPop() : City" style="text;strokeColor=none;fillColor=none;align=left;verticalAlign=top;spacingLeft=4;spacingRight=4;overflow=hidden;rotatable=0;points=[[0,0.5],[1,0.5]];portConstraint=eastwest;whiteSpace=wrap;html=1;" vertex="1" parent="dkug5ZFoNyvDBo68FZNn-152">
          <mxGeometry y="104" width="310" height="26" as="geometry" />
        </mxCell>
        <mxCell id="dkug5ZFoNyvDBo68FZNn-157" value="- maxPopulation: int" style="text;strokeColor=none;fillColor=none;align=left;verticalAlign=top;spacingLeft=4;spacingRight=4;overflow=hidden;rotatable=0;points=[[0,0.5],[1,0.5]];portConstraint=eastwest;whiteSpace=wrap;html=1;" vertex="1" parent="dkug5ZFoNyvDBo68FZNn-152">
          <mxGeometry y="130" width="310" height="26" as="geometry" />
        </mxCell>
        <mxCell id="dkug5ZFoNyvDBo68FZNn-158" value="- maxCity : City" style="text;strokeColor=none;fillColor=none;align=left;verticalAlign=top;spacingLeft=4;spacingRight=4;overflow=hidden;rotatable=0;points=[[0,0.5],[1,0.5]];portConstraint=eastwest;whiteSpace=wrap;html=1;" vertex="1" parent="dkug5ZFoNyvDBo68FZNn-152">
          <mxGeometry y="156" width="310" height="26" as="geometry" />
        </mxCell>
        <mxCell id="dkug5ZFoNyvDBo68FZNn-159" value="Extends" style="endArrow=block;endSize=16;endFill=0;html=1;rounded=0;exitX=0.006;exitY=1.115;exitDx=0;exitDy=0;entryX=1;entryY=0.5;entryDx=0;entryDy=0;exitPerimeter=0;" edge="1" parent="WIyWlLk6GJQsqaUBKTNV-1" source="dkug5ZFoNyvDBo68FZNn-156" target="dkug5ZFoNyvDBo68FZNn-104">
          <mxGeometry width="160" relative="1" as="geometry">
            <mxPoint x="2098" y="1127" as="sourcePoint" />
            <mxPoint x="1920" y="1090" as="targetPoint" />
          </mxGeometry>
        </mxCell>
        <mxCell id="dkug5ZFoNyvDBo68FZNn-160" value="&lt;b&gt;MinDensity&lt;/b&gt;" style="swimlane;fontStyle=0;childLayout=stackLayout;horizontal=1;startSize=26;fillColor=none;horizontalStack=0;resizeParent=1;resizeParentMax=0;resizeLast=0;collapsible=1;marginBottom=0;whiteSpace=wrap;html=1;" vertex="1" parent="WIyWlLk6GJQsqaUBKTNV-1">
          <mxGeometry x="1730" y="1006" width="310" height="208" as="geometry" />
        </mxCell>
        <mxCell id="dkug5ZFoNyvDBo68FZNn-161" value="+ Min&lt;span style=&quot;text-align: center;&quot;&gt;Pop&lt;/span&gt;(const vector&amp;lt;City&amp;gt; allZones)&lt;span style=&quot;white-space: pre;&quot;&gt;&#x9;&lt;/span&gt;&lt;span style=&quot;white-space: pre;&quot;&gt;&#x9;&lt;/span&gt;" style="text;strokeColor=none;fillColor=none;align=left;verticalAlign=top;spacingLeft=4;spacingRight=4;overflow=hidden;rotatable=0;points=[[0,0.5],[1,0.5]];portConstraint=eastwest;whiteSpace=wrap;html=1;" vertex="1" parent="dkug5ZFoNyvDBo68FZNn-160">
          <mxGeometry y="26" width="310" height="26" as="geometry" />
        </mxCell>
        <mxCell id="dkug5ZFoNyvDBo68FZNn-162" value="+ ~Min&lt;span style=&quot;text-align: center;&quot;&gt;Pop&lt;/span&gt;()" style="text;strokeColor=none;fillColor=none;align=left;verticalAlign=top;spacingLeft=4;spacingRight=4;overflow=hidden;rotatable=0;points=[[0,0.5],[1,0.5]];portConstraint=eastwest;whiteSpace=wrap;html=1;" vertex="1" parent="dkug5ZFoNyvDBo68FZNn-160">
          <mxGeometry y="52" width="310" height="26" as="geometry" />
        </mxCell>
        <mxCell id="dkug5ZFoNyvDBo68FZNn-163" value="+ visit(City city)" style="text;strokeColor=none;fillColor=none;align=left;verticalAlign=top;spacingLeft=4;spacingRight=4;overflow=hidden;rotatable=0;points=[[0,0.5],[1,0.5]];portConstraint=eastwest;whiteSpace=wrap;html=1;" vertex="1" parent="dkug5ZFoNyvDBo68FZNn-160">
          <mxGeometry y="78" width="310" height="26" as="geometry" />
        </mxCell>
        <mxCell id="dkug5ZFoNyvDBo68FZNn-164" value="+ getMinDensity() : int" style="text;strokeColor=none;fillColor=none;align=left;verticalAlign=top;spacingLeft=4;spacingRight=4;overflow=hidden;rotatable=0;points=[[0,0.5],[1,0.5]];portConstraint=eastwest;whiteSpace=wrap;html=1;" vertex="1" parent="dkug5ZFoNyvDBo68FZNn-160">
          <mxGeometry y="104" width="310" height="26" as="geometry" />
        </mxCell>
        <mxCell id="dkug5ZFoNyvDBo68FZNn-167" value="+ getMinCity() : City" style="text;strokeColor=none;fillColor=none;align=left;verticalAlign=top;spacingLeft=4;spacingRight=4;overflow=hidden;rotatable=0;points=[[0,0.5],[1,0.5]];portConstraint=eastwest;whiteSpace=wrap;html=1;" vertex="1" parent="dkug5ZFoNyvDBo68FZNn-160">
          <mxGeometry y="130" width="310" height="26" as="geometry" />
        </mxCell>
        <mxCell id="dkug5ZFoNyvDBo68FZNn-165" value="- minDensity: int" style="text;strokeColor=none;fillColor=none;align=left;verticalAlign=top;spacingLeft=4;spacingRight=4;overflow=hidden;rotatable=0;points=[[0,0.5],[1,0.5]];portConstraint=eastwest;whiteSpace=wrap;html=1;" vertex="1" parent="dkug5ZFoNyvDBo68FZNn-160">
          <mxGeometry y="156" width="310" height="26" as="geometry" />
        </mxCell>
        <mxCell id="dkug5ZFoNyvDBo68FZNn-166" value="- theCity : City" style="text;strokeColor=none;fillColor=none;align=left;verticalAlign=top;spacingLeft=4;spacingRight=4;overflow=hidden;rotatable=0;points=[[0,0.5],[1,0.5]];portConstraint=eastwest;whiteSpace=wrap;html=1;" vertex="1" parent="dkug5ZFoNyvDBo68FZNn-160">
          <mxGeometry y="182" width="310" height="26" as="geometry" />
        </mxCell>
        <mxCell id="dkug5ZFoNyvDBo68FZNn-168" value="Extends" style="endArrow=block;endSize=16;endFill=0;html=1;rounded=0;exitX=-0.009;exitY=1;exitDx=0;exitDy=0;entryX=1;entryY=0.5;entryDx=0;entryDy=0;exitPerimeter=0;" edge="1" parent="WIyWlLk6GJQsqaUBKTNV-1" source="dkug5ZFoNyvDBo68FZNn-166" target="dkug5ZFoNyvDBo68FZNn-103">
          <mxGeometry width="160" relative="1" as="geometry">
            <mxPoint x="1870" y="1074" as="sourcePoint" />
            <mxPoint x="1690" y="1070" as="targetPoint" />
          </mxGeometry>
        </mxCell>
        <mxCell id="dkug5ZFoNyvDBo68FZNn-169" value="&lt;b&gt;MinPop&lt;/b&gt;" style="swimlane;fontStyle=0;childLayout=stackLayout;horizontal=1;startSize=26;fillColor=none;horizontalStack=0;resizeParent=1;resizeParentMax=0;resizeLast=0;collapsible=1;marginBottom=0;whiteSpace=wrap;html=1;" vertex="1" parent="WIyWlLk6GJQsqaUBKTNV-1">
          <mxGeometry x="1890" y="730" width="310" height="182" as="geometry" />
        </mxCell>
        <mxCell id="dkug5ZFoNyvDBo68FZNn-170" value="+&amp;nbsp;&lt;span style=&quot;text-align: center;&quot;&gt;MinPop&lt;/span&gt;(const vector&amp;lt;City&amp;gt; allZones)&lt;span style=&quot;white-space: pre;&quot;&gt;&#x9;&lt;/span&gt;&lt;span style=&quot;white-space: pre;&quot;&gt;&#x9;&lt;/span&gt;" style="text;strokeColor=none;fillColor=none;align=left;verticalAlign=top;spacingLeft=4;spacingRight=4;overflow=hidden;rotatable=0;points=[[0,0.5],[1,0.5]];portConstraint=eastwest;whiteSpace=wrap;html=1;" vertex="1" parent="dkug5ZFoNyvDBo68FZNn-169">
          <mxGeometry y="26" width="310" height="26" as="geometry" />
        </mxCell>
        <mxCell id="dkug5ZFoNyvDBo68FZNn-171" value="+ ~&lt;span style=&quot;text-align: center;&quot;&gt;MinPop&lt;/span&gt;()" style="text;strokeColor=none;fillColor=none;align=left;verticalAlign=top;spacingLeft=4;spacingRight=4;overflow=hidden;rotatable=0;points=[[0,0.5],[1,0.5]];portConstraint=eastwest;whiteSpace=wrap;html=1;" vertex="1" parent="dkug5ZFoNyvDBo68FZNn-169">
          <mxGeometry y="52" width="310" height="26" as="geometry" />
        </mxCell>
        <mxCell id="dkug5ZFoNyvDBo68FZNn-172" value="+ visit(City city)" style="text;strokeColor=none;fillColor=none;align=left;verticalAlign=top;spacingLeft=4;spacingRight=4;overflow=hidden;rotatable=0;points=[[0,0.5],[1,0.5]];portConstraint=eastwest;whiteSpace=wrap;html=1;" vertex="1" parent="dkug5ZFoNyvDBo68FZNn-169">
          <mxGeometry y="78" width="310" height="26" as="geometry" />
        </mxCell>
        <mxCell id="dkug5ZFoNyvDBo68FZNn-173" value="+ getMaxPop() : City" style="text;strokeColor=none;fillColor=none;align=left;verticalAlign=top;spacingLeft=4;spacingRight=4;overflow=hidden;rotatable=0;points=[[0,0.5],[1,0.5]];portConstraint=eastwest;whiteSpace=wrap;html=1;" vertex="1" parent="dkug5ZFoNyvDBo68FZNn-169">
          <mxGeometry y="104" width="310" height="26" as="geometry" />
        </mxCell>
        <mxCell id="dkug5ZFoNyvDBo68FZNn-174" value="- minPopulation: int" style="text;strokeColor=none;fillColor=none;align=left;verticalAlign=top;spacingLeft=4;spacingRight=4;overflow=hidden;rotatable=0;points=[[0,0.5],[1,0.5]];portConstraint=eastwest;whiteSpace=wrap;html=1;" vertex="1" parent="dkug5ZFoNyvDBo68FZNn-169">
          <mxGeometry y="130" width="310" height="26" as="geometry" />
        </mxCell>
        <mxCell id="dkug5ZFoNyvDBo68FZNn-175" value="- minCity : City" style="text;strokeColor=none;fillColor=none;align=left;verticalAlign=top;spacingLeft=4;spacingRight=4;overflow=hidden;rotatable=0;points=[[0,0.5],[1,0.5]];portConstraint=eastwest;whiteSpace=wrap;html=1;" vertex="1" parent="dkug5ZFoNyvDBo68FZNn-169">
          <mxGeometry y="156" width="310" height="26" as="geometry" />
        </mxCell>
        <mxCell id="dkug5ZFoNyvDBo68FZNn-176" value="Extends" style="endArrow=block;endSize=16;endFill=0;html=1;rounded=0;exitX=0.002;exitY=0.971;exitDx=0;exitDy=0;entryX=1;entryY=0;entryDx=0;entryDy=0;exitPerimeter=0;" edge="1" parent="WIyWlLk6GJQsqaUBKTNV-1" source="dkug5ZFoNyvDBo68FZNn-175" target="dkug5ZFoNyvDBo68FZNn-102">
          <mxGeometry width="160" relative="1" as="geometry">
            <mxPoint x="1877" y="930" as="sourcePoint" />
            <mxPoint x="1720" y="1041" as="targetPoint" />
          </mxGeometry>
        </mxCell>
        <mxCell id="dkug5ZFoNyvDBo68FZNn-177" value="&lt;b&gt;MinPop&lt;/b&gt;" style="swimlane;fontStyle=0;childLayout=stackLayout;horizontal=1;startSize=26;fillColor=none;horizontalStack=0;resizeParent=1;resizeParentMax=0;resizeLast=0;collapsible=1;marginBottom=0;whiteSpace=wrap;html=1;" vertex="1" parent="WIyWlLk6GJQsqaUBKTNV-1">
          <mxGeometry x="1760" y="520" width="310" height="182" as="geometry" />
        </mxCell>
        <mxCell id="dkug5ZFoNyvDBo68FZNn-178" value="+&amp;nbsp;&lt;span style=&quot;text-align: center;&quot;&gt;MinLandArea(&lt;/span&gt;const vector&amp;lt;City&amp;gt; allZones)&lt;span style=&quot;white-space: pre;&quot;&gt;&#x9;&lt;/span&gt;&lt;span style=&quot;white-space: pre;&quot;&gt;&#x9;&lt;/span&gt;" style="text;strokeColor=none;fillColor=none;align=left;verticalAlign=top;spacingLeft=4;spacingRight=4;overflow=hidden;rotatable=0;points=[[0,0.5],[1,0.5]];portConstraint=eastwest;whiteSpace=wrap;html=1;" vertex="1" parent="dkug5ZFoNyvDBo68FZNn-177">
          <mxGeometry y="26" width="310" height="26" as="geometry" />
        </mxCell>
        <mxCell id="dkug5ZFoNyvDBo68FZNn-179" value="+ ~&lt;span style=&quot;text-align: center;&quot;&gt;MinLandArea&lt;/span&gt;()" style="text;strokeColor=none;fillColor=none;align=left;verticalAlign=top;spacingLeft=4;spacingRight=4;overflow=hidden;rotatable=0;points=[[0,0.5],[1,0.5]];portConstraint=eastwest;whiteSpace=wrap;html=1;" vertex="1" parent="dkug5ZFoNyvDBo68FZNn-177">
          <mxGeometry y="52" width="310" height="26" as="geometry" />
        </mxCell>
        <mxCell id="dkug5ZFoNyvDBo68FZNn-180" value="+ visit(City city)" style="text;strokeColor=none;fillColor=none;align=left;verticalAlign=top;spacingLeft=4;spacingRight=4;overflow=hidden;rotatable=0;points=[[0,0.5],[1,0.5]];portConstraint=eastwest;whiteSpace=wrap;html=1;" vertex="1" parent="dkug5ZFoNyvDBo68FZNn-177">
          <mxGeometry y="78" width="310" height="26" as="geometry" />
        </mxCell>
        <mxCell id="dkug5ZFoNyvDBo68FZNn-181" value="+ getMinArea() : City" style="text;strokeColor=none;fillColor=none;align=left;verticalAlign=top;spacingLeft=4;spacingRight=4;overflow=hidden;rotatable=0;points=[[0,0.5],[1,0.5]];portConstraint=eastwest;whiteSpace=wrap;html=1;" vertex="1" parent="dkug5ZFoNyvDBo68FZNn-177">
          <mxGeometry y="104" width="310" height="26" as="geometry" />
        </mxCell>
        <mxCell id="dkug5ZFoNyvDBo68FZNn-182" value="- minArea : int" style="text;strokeColor=none;fillColor=none;align=left;verticalAlign=top;spacingLeft=4;spacingRight=4;overflow=hidden;rotatable=0;points=[[0,0.5],[1,0.5]];portConstraint=eastwest;whiteSpace=wrap;html=1;" vertex="1" parent="dkug5ZFoNyvDBo68FZNn-177">
          <mxGeometry y="130" width="310" height="26" as="geometry" />
        </mxCell>
        <mxCell id="dkug5ZFoNyvDBo68FZNn-183" value="- minCity : City" style="text;strokeColor=none;fillColor=none;align=left;verticalAlign=top;spacingLeft=4;spacingRight=4;overflow=hidden;rotatable=0;points=[[0,0.5],[1,0.5]];portConstraint=eastwest;whiteSpace=wrap;html=1;" vertex="1" parent="dkug5ZFoNyvDBo68FZNn-177">
          <mxGeometry y="156" width="310" height="26" as="geometry" />
        </mxCell>
        <mxCell id="dkug5ZFoNyvDBo68FZNn-184" value="Extends" style="endArrow=block;endSize=16;endFill=0;html=1;rounded=0;exitX=0.327;exitY=1.129;exitDx=0;exitDy=0;entryX=0.925;entryY=0.018;entryDx=0;entryDy=0;exitPerimeter=0;entryPerimeter=0;" edge="1" parent="WIyWlLk6GJQsqaUBKTNV-1" source="dkug5ZFoNyvDBo68FZNn-183" target="dkug5ZFoNyvDBo68FZNn-102">
          <mxGeometry width="160" relative="1" as="geometry">
            <mxPoint x="1791" y="890" as="sourcePoint" />
            <mxPoint x="1650" y="1219" as="targetPoint" />
          </mxGeometry>
        </mxCell>
        <mxCell id="dkug5ZFoNyvDBo68FZNn-185" value="&lt;b&gt;SearchMinArea&lt;/b&gt;" style="swimlane;fontStyle=0;childLayout=stackLayout;horizontal=1;startSize=26;fillColor=none;horizontalStack=0;resizeParent=1;resizeParentMax=0;resizeLast=0;collapsible=1;marginBottom=0;whiteSpace=wrap;html=1;" vertex="1" parent="WIyWlLk6GJQsqaUBKTNV-1">
          <mxGeometry x="1550" y="710" width="270" height="182" as="geometry" />
        </mxCell>
        <mxCell id="dkug5ZFoNyvDBo68FZNn-186" value="&lt;font style=&quot;font-size: 9px;&quot;&gt;+&amp;nbsp;&lt;span style=&quot;text-align: center;&quot;&gt;SearchMinArea&lt;/span&gt;&lt;span style=&quot;text-align: center;&quot;&gt;(&lt;/span&gt;const vector&amp;lt;City&amp;gt; allZones)&lt;span style=&quot;white-space: pre;&quot;&gt;&#x9;&lt;/span&gt;&lt;span style=&quot;white-space: pre;&quot;&gt;&#x9;&lt;/span&gt;&lt;/font&gt;" style="text;strokeColor=none;fillColor=none;align=left;verticalAlign=top;spacingLeft=4;spacingRight=4;overflow=hidden;rotatable=0;points=[[0,0.5],[1,0.5]];portConstraint=eastwest;whiteSpace=wrap;html=1;" vertex="1" parent="dkug5ZFoNyvDBo68FZNn-185">
          <mxGeometry y="26" width="270" height="26" as="geometry" />
        </mxCell>
        <mxCell id="dkug5ZFoNyvDBo68FZNn-187" value="+ ~&lt;span style=&quot;text-align: center;&quot;&gt;SearchMinArea&lt;/span&gt;()" style="text;strokeColor=none;fillColor=none;align=left;verticalAlign=top;spacingLeft=4;spacingRight=4;overflow=hidden;rotatable=0;points=[[0,0.5],[1,0.5]];portConstraint=eastwest;whiteSpace=wrap;html=1;" vertex="1" parent="dkug5ZFoNyvDBo68FZNn-185">
          <mxGeometry y="52" width="270" height="26" as="geometry" />
        </mxCell>
        <mxCell id="dkug5ZFoNyvDBo68FZNn-188" value="+ visit(City city)" style="text;strokeColor=none;fillColor=none;align=left;verticalAlign=top;spacingLeft=4;spacingRight=4;overflow=hidden;rotatable=0;points=[[0,0.5],[1,0.5]];portConstraint=eastwest;whiteSpace=wrap;html=1;" vertex="1" parent="dkug5ZFoNyvDBo68FZNn-185">
          <mxGeometry y="78" width="270" height="26" as="geometry" />
        </mxCell>
        <mxCell id="dkug5ZFoNyvDBo68FZNn-189" value="+ getAreas() : vector&amp;lt;City&amp;gt;" style="text;strokeColor=none;fillColor=none;align=left;verticalAlign=top;spacingLeft=4;spacingRight=4;overflow=hidden;rotatable=0;points=[[0,0.5],[1,0.5]];portConstraint=eastwest;whiteSpace=wrap;html=1;" vertex="1" parent="dkug5ZFoNyvDBo68FZNn-185">
          <mxGeometry y="104" width="270" height="26" as="geometry" />
        </mxCell>
        <mxCell id="dkug5ZFoNyvDBo68FZNn-190" value="- landArea : String" style="text;strokeColor=none;fillColor=none;align=left;verticalAlign=top;spacingLeft=4;spacingRight=4;overflow=hidden;rotatable=0;points=[[0,0.5],[1,0.5]];portConstraint=eastwest;whiteSpace=wrap;html=1;" vertex="1" parent="dkug5ZFoNyvDBo68FZNn-185">
          <mxGeometry y="130" width="270" height="26" as="geometry" />
        </mxCell>
        <mxCell id="dkug5ZFoNyvDBo68FZNn-191" value="- matches : vector&amp;lt;City&amp;gt;" style="text;strokeColor=none;fillColor=none;align=left;verticalAlign=top;spacingLeft=4;spacingRight=4;overflow=hidden;rotatable=0;points=[[0,0.5],[1,0.5]];portConstraint=eastwest;whiteSpace=wrap;html=1;" vertex="1" parent="dkug5ZFoNyvDBo68FZNn-185">
          <mxGeometry y="156" width="270" height="26" as="geometry" />
        </mxCell>
        <mxCell id="dkug5ZFoNyvDBo68FZNn-192" value="Extends" style="endArrow=block;endSize=16;endFill=0;html=1;rounded=0;exitX=0.625;exitY=1.154;exitDx=0;exitDy=0;entryX=0.794;entryY=-0.03;entryDx=0;entryDy=0;exitPerimeter=0;entryPerimeter=0;" edge="1" parent="WIyWlLk6GJQsqaUBKTNV-1" source="dkug5ZFoNyvDBo68FZNn-191" target="dkug5ZFoNyvDBo68FZNn-102">
          <mxGeometry width="160" relative="1" as="geometry">
            <mxPoint x="1470" y="950" as="sourcePoint" />
            <mxPoint x="1343" y="1487" as="targetPoint" />
          </mxGeometry>
        </mxCell>
        <mxCell id="dkug5ZFoNyvDBo68FZNn-193" value="&lt;b&gt;SearchZipCode&lt;/b&gt;" style="swimlane;fontStyle=0;childLayout=stackLayout;horizontal=1;startSize=26;fillColor=none;horizontalStack=0;resizeParent=1;resizeParentMax=0;resizeLast=0;collapsible=1;marginBottom=0;whiteSpace=wrap;html=1;" vertex="1" parent="WIyWlLk6GJQsqaUBKTNV-1">
          <mxGeometry x="1360" y="520" width="310" height="182" as="geometry" />
        </mxCell>
        <mxCell id="dkug5ZFoNyvDBo68FZNn-194" value="+&amp;nbsp;&lt;span style=&quot;text-align: center;&quot;&gt;SearchZipCode&lt;/span&gt;&lt;span style=&quot;text-align: center;&quot;&gt;(&lt;/span&gt;const vector&amp;lt;City&amp;gt; allZones)&lt;span style=&quot;white-space: pre;&quot;&gt;&#x9;&lt;/span&gt;&lt;span style=&quot;white-space: pre;&quot;&gt;&#x9;&lt;/span&gt;" style="text;strokeColor=none;fillColor=none;align=left;verticalAlign=top;spacingLeft=4;spacingRight=4;overflow=hidden;rotatable=0;points=[[0,0.5],[1,0.5]];portConstraint=eastwest;whiteSpace=wrap;html=1;" vertex="1" parent="dkug5ZFoNyvDBo68FZNn-193">
          <mxGeometry y="26" width="310" height="26" as="geometry" />
        </mxCell>
        <mxCell id="dkug5ZFoNyvDBo68FZNn-195" value="+ ~&lt;span style=&quot;text-align: center;&quot;&gt;SearchZipCode&lt;/span&gt;()" style="text;strokeColor=none;fillColor=none;align=left;verticalAlign=top;spacingLeft=4;spacingRight=4;overflow=hidden;rotatable=0;points=[[0,0.5],[1,0.5]];portConstraint=eastwest;whiteSpace=wrap;html=1;" vertex="1" parent="dkug5ZFoNyvDBo68FZNn-193">
          <mxGeometry y="52" width="310" height="26" as="geometry" />
        </mxCell>
        <mxCell id="dkug5ZFoNyvDBo68FZNn-196" value="+ visit(City city)" style="text;strokeColor=none;fillColor=none;align=left;verticalAlign=top;spacingLeft=4;spacingRight=4;overflow=hidden;rotatable=0;points=[[0,0.5],[1,0.5]];portConstraint=eastwest;whiteSpace=wrap;html=1;" vertex="1" parent="dkug5ZFoNyvDBo68FZNn-193">
          <mxGeometry y="78" width="310" height="26" as="geometry" />
        </mxCell>
        <mxCell id="dkug5ZFoNyvDBo68FZNn-197" value="+ getZips() : vector&amp;lt;City&amp;gt;" style="text;strokeColor=none;fillColor=none;align=left;verticalAlign=top;spacingLeft=4;spacingRight=4;overflow=hidden;rotatable=0;points=[[0,0.5],[1,0.5]];portConstraint=eastwest;whiteSpace=wrap;html=1;" vertex="1" parent="dkug5ZFoNyvDBo68FZNn-193">
          <mxGeometry y="104" width="310" height="26" as="geometry" />
        </mxCell>
        <mxCell id="dkug5ZFoNyvDBo68FZNn-198" value="- zipCode : string" style="text;strokeColor=none;fillColor=none;align=left;verticalAlign=top;spacingLeft=4;spacingRight=4;overflow=hidden;rotatable=0;points=[[0,0.5],[1,0.5]];portConstraint=eastwest;whiteSpace=wrap;html=1;" vertex="1" parent="dkug5ZFoNyvDBo68FZNn-193">
          <mxGeometry y="130" width="310" height="26" as="geometry" />
        </mxCell>
        <mxCell id="dkug5ZFoNyvDBo68FZNn-199" value="- matches : vector&amp;lt;City&amp;gt;" style="text;strokeColor=none;fillColor=none;align=left;verticalAlign=top;spacingLeft=4;spacingRight=4;overflow=hidden;rotatable=0;points=[[0,0.5],[1,0.5]];portConstraint=eastwest;whiteSpace=wrap;html=1;" vertex="1" parent="dkug5ZFoNyvDBo68FZNn-193">
          <mxGeometry y="156" width="310" height="26" as="geometry" />
        </mxCell>
        <mxCell id="dkug5ZFoNyvDBo68FZNn-200" value="&lt;b&gt;SearchStateId&lt;/b&gt;" style="swimlane;fontStyle=0;childLayout=stackLayout;horizontal=1;startSize=26;fillColor=none;horizontalStack=0;resizeParent=1;resizeParentMax=0;resizeLast=0;collapsible=1;marginBottom=0;whiteSpace=wrap;html=1;" vertex="1" parent="WIyWlLk6GJQsqaUBKTNV-1">
          <mxGeometry x="1200" y="710" width="310" height="182" as="geometry" />
        </mxCell>
        <mxCell id="dkug5ZFoNyvDBo68FZNn-201" value="+&amp;nbsp;&lt;span style=&quot;text-align: center;&quot;&gt;SearchStateId&lt;/span&gt;&lt;span style=&quot;text-align: center;&quot;&gt;(&lt;/span&gt;const vector&amp;lt;City&amp;gt; allZones)&lt;span style=&quot;white-space: pre;&quot;&gt;&#x9;&lt;/span&gt;&lt;span style=&quot;white-space: pre;&quot;&gt;&#x9;&lt;/span&gt;" style="text;strokeColor=none;fillColor=none;align=left;verticalAlign=top;spacingLeft=4;spacingRight=4;overflow=hidden;rotatable=0;points=[[0,0.5],[1,0.5]];portConstraint=eastwest;whiteSpace=wrap;html=1;" vertex="1" parent="dkug5ZFoNyvDBo68FZNn-200">
          <mxGeometry y="26" width="310" height="26" as="geometry" />
        </mxCell>
        <mxCell id="dkug5ZFoNyvDBo68FZNn-202" value="+ ~&lt;span style=&quot;text-align: center;&quot;&gt;SearchStateId&lt;/span&gt;()" style="text;strokeColor=none;fillColor=none;align=left;verticalAlign=top;spacingLeft=4;spacingRight=4;overflow=hidden;rotatable=0;points=[[0,0.5],[1,0.5]];portConstraint=eastwest;whiteSpace=wrap;html=1;" vertex="1" parent="dkug5ZFoNyvDBo68FZNn-200">
          <mxGeometry y="52" width="310" height="26" as="geometry" />
        </mxCell>
        <mxCell id="dkug5ZFoNyvDBo68FZNn-203" value="+ visit(City city)" style="text;strokeColor=none;fillColor=none;align=left;verticalAlign=top;spacingLeft=4;spacingRight=4;overflow=hidden;rotatable=0;points=[[0,0.5],[1,0.5]];portConstraint=eastwest;whiteSpace=wrap;html=1;" vertex="1" parent="dkug5ZFoNyvDBo68FZNn-200">
          <mxGeometry y="78" width="310" height="26" as="geometry" />
        </mxCell>
        <mxCell id="dkug5ZFoNyvDBo68FZNn-204" value="+ getIds() : vector&amp;lt;City&amp;gt;" style="text;strokeColor=none;fillColor=none;align=left;verticalAlign=top;spacingLeft=4;spacingRight=4;overflow=hidden;rotatable=0;points=[[0,0.5],[1,0.5]];portConstraint=eastwest;whiteSpace=wrap;html=1;" vertex="1" parent="dkug5ZFoNyvDBo68FZNn-200">
          <mxGeometry y="104" width="310" height="26" as="geometry" />
        </mxCell>
        <mxCell id="dkug5ZFoNyvDBo68FZNn-205" value="- stateId: string" style="text;strokeColor=none;fillColor=none;align=left;verticalAlign=top;spacingLeft=4;spacingRight=4;overflow=hidden;rotatable=0;points=[[0,0.5],[1,0.5]];portConstraint=eastwest;whiteSpace=wrap;html=1;" vertex="1" parent="dkug5ZFoNyvDBo68FZNn-200">
          <mxGeometry y="130" width="310" height="26" as="geometry" />
        </mxCell>
        <mxCell id="dkug5ZFoNyvDBo68FZNn-206" value="- matches : vector&amp;lt;City&amp;gt;" style="text;strokeColor=none;fillColor=none;align=left;verticalAlign=top;spacingLeft=4;spacingRight=4;overflow=hidden;rotatable=0;points=[[0,0.5],[1,0.5]];portConstraint=eastwest;whiteSpace=wrap;html=1;" vertex="1" parent="dkug5ZFoNyvDBo68FZNn-200">
          <mxGeometry y="156" width="310" height="26" as="geometry" />
        </mxCell>
        <mxCell id="dkug5ZFoNyvDBo68FZNn-207" value="Extends" style="endArrow=block;endSize=16;endFill=0;html=1;rounded=0;exitX=0.524;exitY=0.968;exitDx=0;exitDy=0;entryX=0.364;entryY=0;entryDx=0;entryDy=0;exitPerimeter=0;entryPerimeter=0;" edge="1" parent="WIyWlLk6GJQsqaUBKTNV-1" source="dkug5ZFoNyvDBo68FZNn-199" target="dkug5ZFoNyvDBo68FZNn-102">
          <mxGeometry width="160" relative="1" as="geometry">
            <mxPoint x="1420" y="940" as="sourcePoint" />
            <mxPoint x="1436" y="1281" as="targetPoint" />
          </mxGeometry>
        </mxCell>
        <mxCell id="dkug5ZFoNyvDBo68FZNn-208" value="Extends" style="endArrow=block;endSize=16;endFill=0;html=1;rounded=0;exitX=0.856;exitY=1.052;exitDx=0;exitDy=0;entryX=0.291;entryY=0.02;entryDx=0;entryDy=0;exitPerimeter=0;entryPerimeter=0;" edge="1" parent="WIyWlLk6GJQsqaUBKTNV-1" source="dkug5ZFoNyvDBo68FZNn-206" target="dkug5ZFoNyvDBo68FZNn-102">
          <mxGeometry width="160" relative="1" as="geometry">
            <mxPoint x="1120" y="860" as="sourcePoint" />
            <mxPoint x="1191" y="1399" as="targetPoint" />
          </mxGeometry>
        </mxCell>
        <mxCell id="dkug5ZFoNyvDBo68FZNn-209" value="&lt;b&gt;SearchPopDensity&lt;/b&gt;" style="swimlane;fontStyle=0;childLayout=stackLayout;horizontal=1;startSize=26;fillColor=none;horizontalStack=0;resizeParent=1;resizeParentMax=0;resizeLast=0;collapsible=1;marginBottom=0;whiteSpace=wrap;html=1;" vertex="1" parent="WIyWlLk6GJQsqaUBKTNV-1">
          <mxGeometry x="880" y="743" width="310" height="156" as="geometry" />
        </mxCell>
        <mxCell id="dkug5ZFoNyvDBo68FZNn-210" value="&lt;font style=&quot;font-size: 10px;&quot;&gt;+&amp;nbsp;&lt;span style=&quot;text-align: center;&quot;&gt;SearchPopDensity&lt;/span&gt;&lt;span style=&quot;text-align: center;&quot;&gt;(&lt;/span&gt;const vector&amp;lt;City&amp;gt; allZones)&lt;span style=&quot;white-space: pre;&quot;&gt;&#x9;&lt;/span&gt;&lt;span style=&quot;white-space: pre;&quot;&gt;&#x9;&lt;/span&gt;&lt;/font&gt;" style="text;strokeColor=none;fillColor=none;align=left;verticalAlign=top;spacingLeft=4;spacingRight=4;overflow=hidden;rotatable=0;points=[[0,0.5],[1,0.5]];portConstraint=eastwest;whiteSpace=wrap;html=1;" vertex="1" parent="dkug5ZFoNyvDBo68FZNn-209">
          <mxGeometry y="26" width="310" height="26" as="geometry" />
        </mxCell>
        <mxCell id="dkug5ZFoNyvDBo68FZNn-211" value="+ ~&lt;span style=&quot;text-align: center;&quot;&gt;SearchPopDensity&lt;/span&gt;()" style="text;strokeColor=none;fillColor=none;align=left;verticalAlign=top;spacingLeft=4;spacingRight=4;overflow=hidden;rotatable=0;points=[[0,0.5],[1,0.5]];portConstraint=eastwest;whiteSpace=wrap;html=1;" vertex="1" parent="dkug5ZFoNyvDBo68FZNn-209">
          <mxGeometry y="52" width="310" height="26" as="geometry" />
        </mxCell>
        <mxCell id="dkug5ZFoNyvDBo68FZNn-212" value="+ visit(City city)" style="text;strokeColor=none;fillColor=none;align=left;verticalAlign=top;spacingLeft=4;spacingRight=4;overflow=hidden;rotatable=0;points=[[0,0.5],[1,0.5]];portConstraint=eastwest;whiteSpace=wrap;html=1;" vertex="1" parent="dkug5ZFoNyvDBo68FZNn-209">
          <mxGeometry y="78" width="310" height="26" as="geometry" />
        </mxCell>
        <mxCell id="dkug5ZFoNyvDBo68FZNn-213" value="+ getPopDensity() : vector&amp;lt;City&amp;gt;" style="text;strokeColor=none;fillColor=none;align=left;verticalAlign=top;spacingLeft=4;spacingRight=4;overflow=hidden;rotatable=0;points=[[0,0.5],[1,0.5]];portConstraint=eastwest;whiteSpace=wrap;html=1;" vertex="1" parent="dkug5ZFoNyvDBo68FZNn-209">
          <mxGeometry y="104" width="310" height="26" as="geometry" />
        </mxCell>
        <mxCell id="dkug5ZFoNyvDBo68FZNn-215" value="- cities : vector&amp;lt;City&amp;gt;" style="text;strokeColor=none;fillColor=none;align=left;verticalAlign=top;spacingLeft=4;spacingRight=4;overflow=hidden;rotatable=0;points=[[0,0.5],[1,0.5]];portConstraint=eastwest;whiteSpace=wrap;html=1;" vertex="1" parent="dkug5ZFoNyvDBo68FZNn-209">
          <mxGeometry y="130" width="310" height="26" as="geometry" />
        </mxCell>
        <mxCell id="dkug5ZFoNyvDBo68FZNn-216" value="Extends" style="endArrow=block;endSize=16;endFill=0;html=1;rounded=0;exitX=1;exitY=1.038;exitDx=0;exitDy=0;entryX=0.204;entryY=-0.005;entryDx=0;entryDy=0;exitPerimeter=0;entryPerimeter=0;" edge="1" parent="WIyWlLk6GJQsqaUBKTNV-1" source="dkug5ZFoNyvDBo68FZNn-215" target="dkug5ZFoNyvDBo68FZNn-102">
          <mxGeometry width="160" relative="1" as="geometry">
            <mxPoint x="1170" y="940" as="sourcePoint" />
            <mxPoint x="1271" y="1286" as="targetPoint" />
          </mxGeometry>
        </mxCell>
        <mxCell id="dkug5ZFoNyvDBo68FZNn-217" value="&lt;b&gt;DecreaseArea&lt;/b&gt;" style="swimlane;fontStyle=0;childLayout=stackLayout;horizontal=1;startSize=26;fillColor=none;horizontalStack=0;resizeParent=1;resizeParentMax=0;resizeLast=0;collapsible=1;marginBottom=0;whiteSpace=wrap;html=1;" vertex="1" parent="WIyWlLk6GJQsqaUBKTNV-1">
          <mxGeometry x="540" y="650" width="310" height="338" as="geometry" />
        </mxCell>
        <mxCell id="dkug5ZFoNyvDBo68FZNn-218" value="&lt;font style=&quot;font-size: 10px;&quot;&gt;+&amp;nbsp;&lt;span style=&quot;font-size: 12px; text-align: center;&quot;&gt;DecreaseArea&lt;/span&gt;&lt;span style=&quot;text-align: center;&quot;&gt;(&lt;/span&gt;const vector&amp;lt;City&amp;gt; allZones)&lt;span style=&quot;white-space: pre;&quot;&gt;&#x9;&lt;/span&gt;&lt;span style=&quot;white-space: pre;&quot;&gt;&#x9;&lt;/span&gt;&lt;/font&gt;" style="text;strokeColor=none;fillColor=none;align=left;verticalAlign=top;spacingLeft=4;spacingRight=4;overflow=hidden;rotatable=0;points=[[0,0.5],[1,0.5]];portConstraint=eastwest;whiteSpace=wrap;html=1;" vertex="1" parent="dkug5ZFoNyvDBo68FZNn-217">
          <mxGeometry y="26" width="310" height="26" as="geometry" />
        </mxCell>
        <mxCell id="dkug5ZFoNyvDBo68FZNn-219" value="+ ~&lt;span style=&quot;text-align: center;&quot;&gt;DecreaseArea&lt;/span&gt;()" style="text;strokeColor=none;fillColor=none;align=left;verticalAlign=top;spacingLeft=4;spacingRight=4;overflow=hidden;rotatable=0;points=[[0,0.5],[1,0.5]];portConstraint=eastwest;whiteSpace=wrap;html=1;" vertex="1" parent="dkug5ZFoNyvDBo68FZNn-217">
          <mxGeometry y="52" width="310" height="26" as="geometry" />
        </mxCell>
        <mxCell id="dkug5ZFoNyvDBo68FZNn-220" value="+ visit(City city)" style="text;strokeColor=none;fillColor=none;align=left;verticalAlign=top;spacingLeft=4;spacingRight=4;overflow=hidden;rotatable=0;points=[[0,0.5],[1,0.5]];portConstraint=eastwest;whiteSpace=wrap;html=1;" vertex="1" parent="dkug5ZFoNyvDBo68FZNn-217">
          <mxGeometry y="78" width="310" height="26" as="geometry" />
        </mxCell>
        <mxCell id="dkug5ZFoNyvDBo68FZNn-221" value="+ getNewArea() : vector&amp;lt;City&amp;gt;" style="text;strokeColor=none;fillColor=none;align=left;verticalAlign=top;spacingLeft=4;spacingRight=4;overflow=hidden;rotatable=0;points=[[0,0.5],[1,0.5]];portConstraint=eastwest;whiteSpace=wrap;html=1;" vertex="1" parent="dkug5ZFoNyvDBo68FZNn-217">
          <mxGeometry y="104" width="310" height="26" as="geometry" />
        </mxCell>
        <mxCell id="dkug5ZFoNyvDBo68FZNn-223" value="+ getOldArea() : vector&amp;lt;City&amp;gt;" style="text;strokeColor=none;fillColor=none;align=left;verticalAlign=top;spacingLeft=4;spacingRight=4;overflow=hidden;rotatable=0;points=[[0,0.5],[1,0.5]];portConstraint=eastwest;whiteSpace=wrap;html=1;" vertex="1" parent="dkug5ZFoNyvDBo68FZNn-217">
          <mxGeometry y="130" width="310" height="26" as="geometry" />
        </mxCell>
        <mxCell id="dkug5ZFoNyvDBo68FZNn-224" value="+ getOldCity() : vector&amp;lt;City&amp;gt;" style="text;strokeColor=none;fillColor=none;align=left;verticalAlign=top;spacingLeft=4;spacingRight=4;overflow=hidden;rotatable=0;points=[[0,0.5],[1,0.5]];portConstraint=eastwest;whiteSpace=wrap;html=1;" vertex="1" parent="dkug5ZFoNyvDBo68FZNn-217">
          <mxGeometry y="156" width="310" height="26" as="geometry" />
        </mxCell>
        <mxCell id="dkug5ZFoNyvDBo68FZNn-225" value="+ found() : vector&amp;lt;City&amp;gt;" style="text;strokeColor=none;fillColor=none;align=left;verticalAlign=top;spacingLeft=4;spacingRight=4;overflow=hidden;rotatable=0;points=[[0,0.5],[1,0.5]];portConstraint=eastwest;whiteSpace=wrap;html=1;" vertex="1" parent="dkug5ZFoNyvDBo68FZNn-217">
          <mxGeometry y="182" width="310" height="26" as="geometry" />
        </mxCell>
        <mxCell id="dkug5ZFoNyvDBo68FZNn-226" value="- newArea : double" style="text;strokeColor=none;fillColor=none;align=left;verticalAlign=top;spacingLeft=4;spacingRight=4;overflow=hidden;rotatable=0;points=[[0,0.5],[1,0.5]];portConstraint=eastwest;whiteSpace=wrap;html=1;" vertex="1" parent="dkug5ZFoNyvDBo68FZNn-217">
          <mxGeometry y="208" width="310" height="26" as="geometry" />
        </mxCell>
        <mxCell id="dkug5ZFoNyvDBo68FZNn-228" value="- oldArea : double" style="text;strokeColor=none;fillColor=none;align=left;verticalAlign=top;spacingLeft=4;spacingRight=4;overflow=hidden;rotatable=0;points=[[0,0.5],[1,0.5]];portConstraint=eastwest;whiteSpace=wrap;html=1;" vertex="1" parent="dkug5ZFoNyvDBo68FZNn-217">
          <mxGeometry y="234" width="310" height="26" as="geometry" />
        </mxCell>
        <mxCell id="dkug5ZFoNyvDBo68FZNn-227" value="- privCity : string" style="text;strokeColor=none;fillColor=none;align=left;verticalAlign=top;spacingLeft=4;spacingRight=4;overflow=hidden;rotatable=0;points=[[0,0.5],[1,0.5]];portConstraint=eastwest;whiteSpace=wrap;html=1;" vertex="1" parent="dkug5ZFoNyvDBo68FZNn-217">
          <mxGeometry y="260" width="310" height="26" as="geometry" />
        </mxCell>
        <mxCell id="dkug5ZFoNyvDBo68FZNn-222" value="- theCity : city" style="text;strokeColor=none;fillColor=none;align=left;verticalAlign=top;spacingLeft=4;spacingRight=4;overflow=hidden;rotatable=0;points=[[0,0.5],[1,0.5]];portConstraint=eastwest;whiteSpace=wrap;html=1;" vertex="1" parent="dkug5ZFoNyvDBo68FZNn-217">
          <mxGeometry y="286" width="310" height="26" as="geometry" />
        </mxCell>
        <mxCell id="dkug5ZFoNyvDBo68FZNn-229" value="- cityFound : bool" style="text;strokeColor=none;fillColor=none;align=left;verticalAlign=top;spacingLeft=4;spacingRight=4;overflow=hidden;rotatable=0;points=[[0,0.5],[1,0.5]];portConstraint=eastwest;whiteSpace=wrap;html=1;" vertex="1" parent="dkug5ZFoNyvDBo68FZNn-217">
          <mxGeometry y="312" width="310" height="26" as="geometry" />
        </mxCell>
        <mxCell id="dkug5ZFoNyvDBo68FZNn-230" value="Extends" style="endArrow=block;endSize=16;endFill=0;html=1;rounded=0;exitX=1.002;exitY=-0.067;exitDx=0;exitDy=0;entryX=0.091;entryY=0;entryDx=0;entryDy=0;exitPerimeter=0;entryPerimeter=0;" edge="1" parent="WIyWlLk6GJQsqaUBKTNV-1" source="dkug5ZFoNyvDBo68FZNn-229" target="dkug5ZFoNyvDBo68FZNn-102">
          <mxGeometry width="160" relative="1" as="geometry">
            <mxPoint x="1050" y="980" as="sourcePoint" />
            <mxPoint x="1400" y="1320" as="targetPoint" />
          </mxGeometry>
        </mxCell>
        <mxCell id="dkug5ZFoNyvDBo68FZNn-231" value="&lt;b&gt;DecreasePop&lt;/b&gt;" style="swimlane;fontStyle=0;childLayout=stackLayout;horizontal=1;startSize=26;fillColor=none;horizontalStack=0;resizeParent=1;resizeParentMax=0;resizeLast=0;collapsible=1;marginBottom=0;whiteSpace=wrap;html=1;" vertex="1" parent="WIyWlLk6GJQsqaUBKTNV-1">
          <mxGeometry x="510" y="1006" width="310" height="338" as="geometry" />
        </mxCell>
        <mxCell id="dkug5ZFoNyvDBo68FZNn-232" value="&lt;font style=&quot;font-size: 10px;&quot;&gt;+&amp;nbsp;&lt;span style=&quot;font-size: 12px; text-align: center;&quot;&gt;DecreasePop&lt;/span&gt;&lt;span style=&quot;text-align: center;&quot;&gt;(&lt;/span&gt;const vector&amp;lt;City&amp;gt; allZones)&lt;span style=&quot;white-space: pre;&quot;&gt;&#x9;&lt;/span&gt;&lt;span style=&quot;white-space: pre;&quot;&gt;&#x9;&lt;/span&gt;&lt;/font&gt;" style="text;strokeColor=none;fillColor=none;align=left;verticalAlign=top;spacingLeft=4;spacingRight=4;overflow=hidden;rotatable=0;points=[[0,0.5],[1,0.5]];portConstraint=eastwest;whiteSpace=wrap;html=1;" vertex="1" parent="dkug5ZFoNyvDBo68FZNn-231">
          <mxGeometry y="26" width="310" height="26" as="geometry" />
        </mxCell>
        <mxCell id="dkug5ZFoNyvDBo68FZNn-233" value="+ ~&lt;span style=&quot;text-align: center;&quot;&gt;DecreasePop&lt;/span&gt;()" style="text;strokeColor=none;fillColor=none;align=left;verticalAlign=top;spacingLeft=4;spacingRight=4;overflow=hidden;rotatable=0;points=[[0,0.5],[1,0.5]];portConstraint=eastwest;whiteSpace=wrap;html=1;" vertex="1" parent="dkug5ZFoNyvDBo68FZNn-231">
          <mxGeometry y="52" width="310" height="26" as="geometry" />
        </mxCell>
        <mxCell id="dkug5ZFoNyvDBo68FZNn-234" value="+ visit(City city)" style="text;strokeColor=none;fillColor=none;align=left;verticalAlign=top;spacingLeft=4;spacingRight=4;overflow=hidden;rotatable=0;points=[[0,0.5],[1,0.5]];portConstraint=eastwest;whiteSpace=wrap;html=1;" vertex="1" parent="dkug5ZFoNyvDBo68FZNn-231">
          <mxGeometry y="78" width="310" height="26" as="geometry" />
        </mxCell>
        <mxCell id="dkug5ZFoNyvDBo68FZNn-235" value="+ getNewPop() : vector&amp;lt;City&amp;gt;" style="text;strokeColor=none;fillColor=none;align=left;verticalAlign=top;spacingLeft=4;spacingRight=4;overflow=hidden;rotatable=0;points=[[0,0.5],[1,0.5]];portConstraint=eastwest;whiteSpace=wrap;html=1;" vertex="1" parent="dkug5ZFoNyvDBo68FZNn-231">
          <mxGeometry y="104" width="310" height="26" as="geometry" />
        </mxCell>
        <mxCell id="dkug5ZFoNyvDBo68FZNn-236" value="+ getOldPop() : vector&amp;lt;City&amp;gt;" style="text;strokeColor=none;fillColor=none;align=left;verticalAlign=top;spacingLeft=4;spacingRight=4;overflow=hidden;rotatable=0;points=[[0,0.5],[1,0.5]];portConstraint=eastwest;whiteSpace=wrap;html=1;" vertex="1" parent="dkug5ZFoNyvDBo68FZNn-231">
          <mxGeometry y="130" width="310" height="26" as="geometry" />
        </mxCell>
        <mxCell id="dkug5ZFoNyvDBo68FZNn-237" value="+ getOldCity() : vector&amp;lt;City&amp;gt;" style="text;strokeColor=none;fillColor=none;align=left;verticalAlign=top;spacingLeft=4;spacingRight=4;overflow=hidden;rotatable=0;points=[[0,0.5],[1,0.5]];portConstraint=eastwest;whiteSpace=wrap;html=1;" vertex="1" parent="dkug5ZFoNyvDBo68FZNn-231">
          <mxGeometry y="156" width="310" height="26" as="geometry" />
        </mxCell>
        <mxCell id="dkug5ZFoNyvDBo68FZNn-238" value="+ found() : vector&amp;lt;City&amp;gt;" style="text;strokeColor=none;fillColor=none;align=left;verticalAlign=top;spacingLeft=4;spacingRight=4;overflow=hidden;rotatable=0;points=[[0,0.5],[1,0.5]];portConstraint=eastwest;whiteSpace=wrap;html=1;" vertex="1" parent="dkug5ZFoNyvDBo68FZNn-231">
          <mxGeometry y="182" width="310" height="26" as="geometry" />
        </mxCell>
        <mxCell id="dkug5ZFoNyvDBo68FZNn-239" value="- newPopulation : double" style="text;strokeColor=none;fillColor=none;align=left;verticalAlign=top;spacingLeft=4;spacingRight=4;overflow=hidden;rotatable=0;points=[[0,0.5],[1,0.5]];portConstraint=eastwest;whiteSpace=wrap;html=1;" vertex="1" parent="dkug5ZFoNyvDBo68FZNn-231">
          <mxGeometry y="208" width="310" height="26" as="geometry" />
        </mxCell>
        <mxCell id="dkug5ZFoNyvDBo68FZNn-240" value="- oldPopulation : double" style="text;strokeColor=none;fillColor=none;align=left;verticalAlign=top;spacingLeft=4;spacingRight=4;overflow=hidden;rotatable=0;points=[[0,0.5],[1,0.5]];portConstraint=eastwest;whiteSpace=wrap;html=1;" vertex="1" parent="dkug5ZFoNyvDBo68FZNn-231">
          <mxGeometry y="234" width="310" height="26" as="geometry" />
        </mxCell>
        <mxCell id="dkug5ZFoNyvDBo68FZNn-241" value="- privCity : string" style="text;strokeColor=none;fillColor=none;align=left;verticalAlign=top;spacingLeft=4;spacingRight=4;overflow=hidden;rotatable=0;points=[[0,0.5],[1,0.5]];portConstraint=eastwest;whiteSpace=wrap;html=1;" vertex="1" parent="dkug5ZFoNyvDBo68FZNn-231">
          <mxGeometry y="260" width="310" height="26" as="geometry" />
        </mxCell>
        <mxCell id="dkug5ZFoNyvDBo68FZNn-242" value="- theCity : city" style="text;strokeColor=none;fillColor=none;align=left;verticalAlign=top;spacingLeft=4;spacingRight=4;overflow=hidden;rotatable=0;points=[[0,0.5],[1,0.5]];portConstraint=eastwest;whiteSpace=wrap;html=1;" vertex="1" parent="dkug5ZFoNyvDBo68FZNn-231">
          <mxGeometry y="286" width="310" height="26" as="geometry" />
        </mxCell>
        <mxCell id="dkug5ZFoNyvDBo68FZNn-243" value="- cityFound : bool" style="text;strokeColor=none;fillColor=none;align=left;verticalAlign=top;spacingLeft=4;spacingRight=4;overflow=hidden;rotatable=0;points=[[0,0.5],[1,0.5]];portConstraint=eastwest;whiteSpace=wrap;html=1;" vertex="1" parent="dkug5ZFoNyvDBo68FZNn-231">
          <mxGeometry y="312" width="310" height="26" as="geometry" />
        </mxCell>
        <mxCell id="dkug5ZFoNyvDBo68FZNn-244" value="Extends" style="endArrow=block;endSize=16;endFill=0;html=1;rounded=0;exitX=1.006;exitY=0.05;exitDx=0;exitDy=0;entryX=0;entryY=0;entryDx=0;entryDy=0;exitPerimeter=0;" edge="1" parent="WIyWlLk6GJQsqaUBKTNV-1" source="dkug5ZFoNyvDBo68FZNn-231" target="dkug5ZFoNyvDBo68FZNn-102">
          <mxGeometry width="160" relative="1" as="geometry">
            <mxPoint x="841" y="1124" as="sourcePoint" />
            <mxPoint x="1530" y="1422" as="targetPoint" />
          </mxGeometry>
        </mxCell>
        <mxCell id="dkug5ZFoNyvDBo68FZNn-258" value="&lt;b&gt;IncreaseArea&lt;/b&gt;" style="swimlane;fontStyle=0;childLayout=stackLayout;horizontal=1;startSize=26;fillColor=none;horizontalStack=0;resizeParent=1;resizeParentMax=0;resizeLast=0;collapsible=1;marginBottom=0;whiteSpace=wrap;html=1;" vertex="1" parent="WIyWlLk6GJQsqaUBKTNV-1">
          <mxGeometry x="590" y="1422" width="310" height="338" as="geometry" />
        </mxCell>
        <mxCell id="dkug5ZFoNyvDBo68FZNn-259" value="&lt;font style=&quot;font-size: 10px;&quot;&gt;+&amp;nbsp;&lt;span style=&quot;font-size: 12px; text-align: center;&quot;&gt;IncreaseArea&lt;/span&gt;&lt;span style=&quot;text-align: center;&quot;&gt;(&lt;/span&gt;const vector&amp;lt;City&amp;gt; allZones)&lt;span style=&quot;white-space: pre;&quot;&gt;&#x9;&lt;/span&gt;&lt;span style=&quot;white-space: pre;&quot;&gt;&#x9;&lt;/span&gt;&lt;/font&gt;" style="text;strokeColor=none;fillColor=none;align=left;verticalAlign=top;spacingLeft=4;spacingRight=4;overflow=hidden;rotatable=0;points=[[0,0.5],[1,0.5]];portConstraint=eastwest;whiteSpace=wrap;html=1;" vertex="1" parent="dkug5ZFoNyvDBo68FZNn-258">
          <mxGeometry y="26" width="310" height="26" as="geometry" />
        </mxCell>
        <mxCell id="dkug5ZFoNyvDBo68FZNn-260" value="+ ~&lt;span style=&quot;text-align: center;&quot;&gt;IncreaseArea&lt;/span&gt;()" style="text;strokeColor=none;fillColor=none;align=left;verticalAlign=top;spacingLeft=4;spacingRight=4;overflow=hidden;rotatable=0;points=[[0,0.5],[1,0.5]];portConstraint=eastwest;whiteSpace=wrap;html=1;" vertex="1" parent="dkug5ZFoNyvDBo68FZNn-258">
          <mxGeometry y="52" width="310" height="26" as="geometry" />
        </mxCell>
        <mxCell id="dkug5ZFoNyvDBo68FZNn-261" value="+ visit(City city)" style="text;strokeColor=none;fillColor=none;align=left;verticalAlign=top;spacingLeft=4;spacingRight=4;overflow=hidden;rotatable=0;points=[[0,0.5],[1,0.5]];portConstraint=eastwest;whiteSpace=wrap;html=1;" vertex="1" parent="dkug5ZFoNyvDBo68FZNn-258">
          <mxGeometry y="78" width="310" height="26" as="geometry" />
        </mxCell>
        <mxCell id="dkug5ZFoNyvDBo68FZNn-262" value="+ getNewArea() : vector&amp;lt;City&amp;gt;" style="text;strokeColor=none;fillColor=none;align=left;verticalAlign=top;spacingLeft=4;spacingRight=4;overflow=hidden;rotatable=0;points=[[0,0.5],[1,0.5]];portConstraint=eastwest;whiteSpace=wrap;html=1;" vertex="1" parent="dkug5ZFoNyvDBo68FZNn-258">
          <mxGeometry y="104" width="310" height="26" as="geometry" />
        </mxCell>
        <mxCell id="dkug5ZFoNyvDBo68FZNn-263" value="+ getOldArea() : vector&amp;lt;City&amp;gt;" style="text;strokeColor=none;fillColor=none;align=left;verticalAlign=top;spacingLeft=4;spacingRight=4;overflow=hidden;rotatable=0;points=[[0,0.5],[1,0.5]];portConstraint=eastwest;whiteSpace=wrap;html=1;" vertex="1" parent="dkug5ZFoNyvDBo68FZNn-258">
          <mxGeometry y="130" width="310" height="26" as="geometry" />
        </mxCell>
        <mxCell id="dkug5ZFoNyvDBo68FZNn-264" value="+ getOldCity() : vector&amp;lt;City&amp;gt;" style="text;strokeColor=none;fillColor=none;align=left;verticalAlign=top;spacingLeft=4;spacingRight=4;overflow=hidden;rotatable=0;points=[[0,0.5],[1,0.5]];portConstraint=eastwest;whiteSpace=wrap;html=1;" vertex="1" parent="dkug5ZFoNyvDBo68FZNn-258">
          <mxGeometry y="156" width="310" height="26" as="geometry" />
        </mxCell>
        <mxCell id="dkug5ZFoNyvDBo68FZNn-265" value="+ found() : vector&amp;lt;City&amp;gt;" style="text;strokeColor=none;fillColor=none;align=left;verticalAlign=top;spacingLeft=4;spacingRight=4;overflow=hidden;rotatable=0;points=[[0,0.5],[1,0.5]];portConstraint=eastwest;whiteSpace=wrap;html=1;" vertex="1" parent="dkug5ZFoNyvDBo68FZNn-258">
          <mxGeometry y="182" width="310" height="26" as="geometry" />
        </mxCell>
        <mxCell id="dkug5ZFoNyvDBo68FZNn-266" value="- newArea : double" style="text;strokeColor=none;fillColor=none;align=left;verticalAlign=top;spacingLeft=4;spacingRight=4;overflow=hidden;rotatable=0;points=[[0,0.5],[1,0.5]];portConstraint=eastwest;whiteSpace=wrap;html=1;" vertex="1" parent="dkug5ZFoNyvDBo68FZNn-258">
          <mxGeometry y="208" width="310" height="26" as="geometry" />
        </mxCell>
        <mxCell id="dkug5ZFoNyvDBo68FZNn-267" value="- oldArea : double" style="text;strokeColor=none;fillColor=none;align=left;verticalAlign=top;spacingLeft=4;spacingRight=4;overflow=hidden;rotatable=0;points=[[0,0.5],[1,0.5]];portConstraint=eastwest;whiteSpace=wrap;html=1;" vertex="1" parent="dkug5ZFoNyvDBo68FZNn-258">
          <mxGeometry y="234" width="310" height="26" as="geometry" />
        </mxCell>
        <mxCell id="dkug5ZFoNyvDBo68FZNn-268" value="- privCity : string" style="text;strokeColor=none;fillColor=none;align=left;verticalAlign=top;spacingLeft=4;spacingRight=4;overflow=hidden;rotatable=0;points=[[0,0.5],[1,0.5]];portConstraint=eastwest;whiteSpace=wrap;html=1;" vertex="1" parent="dkug5ZFoNyvDBo68FZNn-258">
          <mxGeometry y="260" width="310" height="26" as="geometry" />
        </mxCell>
        <mxCell id="dkug5ZFoNyvDBo68FZNn-269" value="- theCity : city" style="text;strokeColor=none;fillColor=none;align=left;verticalAlign=top;spacingLeft=4;spacingRight=4;overflow=hidden;rotatable=0;points=[[0,0.5],[1,0.5]];portConstraint=eastwest;whiteSpace=wrap;html=1;" vertex="1" parent="dkug5ZFoNyvDBo68FZNn-258">
          <mxGeometry y="286" width="310" height="26" as="geometry" />
        </mxCell>
        <mxCell id="dkug5ZFoNyvDBo68FZNn-270" value="- cityFound : bool" style="text;strokeColor=none;fillColor=none;align=left;verticalAlign=top;spacingLeft=4;spacingRight=4;overflow=hidden;rotatable=0;points=[[0,0.5],[1,0.5]];portConstraint=eastwest;whiteSpace=wrap;html=1;" vertex="1" parent="dkug5ZFoNyvDBo68FZNn-258">
          <mxGeometry y="312" width="310" height="26" as="geometry" />
        </mxCell>
        <mxCell id="dkug5ZFoNyvDBo68FZNn-271" value="&lt;b&gt;IncreasePop&lt;/b&gt;" style="swimlane;fontStyle=0;childLayout=stackLayout;horizontal=1;startSize=26;fillColor=none;horizontalStack=0;resizeParent=1;resizeParentMax=0;resizeLast=0;collapsible=1;marginBottom=0;whiteSpace=wrap;html=1;" vertex="1" parent="WIyWlLk6GJQsqaUBKTNV-1">
          <mxGeometry x="630" y="1800" width="310" height="338" as="geometry" />
        </mxCell>
        <mxCell id="dkug5ZFoNyvDBo68FZNn-272" value="&lt;font style=&quot;font-size: 10px;&quot;&gt;+&amp;nbsp;&lt;span style=&quot;font-size: 12px; text-align: center;&quot;&gt;IncreasePop&lt;/span&gt;&lt;span style=&quot;text-align: center;&quot;&gt;(&lt;/span&gt;const vector&amp;lt;City&amp;gt; allZones)&lt;span style=&quot;white-space: pre;&quot;&gt;&#x9;&lt;/span&gt;&lt;span style=&quot;white-space: pre;&quot;&gt;&#x9;&lt;/span&gt;&lt;/font&gt;" style="text;strokeColor=none;fillColor=none;align=left;verticalAlign=top;spacingLeft=4;spacingRight=4;overflow=hidden;rotatable=0;points=[[0,0.5],[1,0.5]];portConstraint=eastwest;whiteSpace=wrap;html=1;" vertex="1" parent="dkug5ZFoNyvDBo68FZNn-271">
          <mxGeometry y="26" width="310" height="26" as="geometry" />
        </mxCell>
        <mxCell id="dkug5ZFoNyvDBo68FZNn-273" value="+ ~&lt;span style=&quot;text-align: center;&quot;&gt;IncreasePop&lt;/span&gt;()" style="text;strokeColor=none;fillColor=none;align=left;verticalAlign=top;spacingLeft=4;spacingRight=4;overflow=hidden;rotatable=0;points=[[0,0.5],[1,0.5]];portConstraint=eastwest;whiteSpace=wrap;html=1;" vertex="1" parent="dkug5ZFoNyvDBo68FZNn-271">
          <mxGeometry y="52" width="310" height="26" as="geometry" />
        </mxCell>
        <mxCell id="dkug5ZFoNyvDBo68FZNn-274" value="+ visit(City city)" style="text;strokeColor=none;fillColor=none;align=left;verticalAlign=top;spacingLeft=4;spacingRight=4;overflow=hidden;rotatable=0;points=[[0,0.5],[1,0.5]];portConstraint=eastwest;whiteSpace=wrap;html=1;" vertex="1" parent="dkug5ZFoNyvDBo68FZNn-271">
          <mxGeometry y="78" width="310" height="26" as="geometry" />
        </mxCell>
        <mxCell id="dkug5ZFoNyvDBo68FZNn-275" value="+ getNewPop() : vector&amp;lt;City&amp;gt;" style="text;strokeColor=none;fillColor=none;align=left;verticalAlign=top;spacingLeft=4;spacingRight=4;overflow=hidden;rotatable=0;points=[[0,0.5],[1,0.5]];portConstraint=eastwest;whiteSpace=wrap;html=1;" vertex="1" parent="dkug5ZFoNyvDBo68FZNn-271">
          <mxGeometry y="104" width="310" height="26" as="geometry" />
        </mxCell>
        <mxCell id="dkug5ZFoNyvDBo68FZNn-276" value="+ getOldPop() : vector&amp;lt;City&amp;gt;" style="text;strokeColor=none;fillColor=none;align=left;verticalAlign=top;spacingLeft=4;spacingRight=4;overflow=hidden;rotatable=0;points=[[0,0.5],[1,0.5]];portConstraint=eastwest;whiteSpace=wrap;html=1;" vertex="1" parent="dkug5ZFoNyvDBo68FZNn-271">
          <mxGeometry y="130" width="310" height="26" as="geometry" />
        </mxCell>
        <mxCell id="dkug5ZFoNyvDBo68FZNn-277" value="+ getOldCity() : vector&amp;lt;City&amp;gt;" style="text;strokeColor=none;fillColor=none;align=left;verticalAlign=top;spacingLeft=4;spacingRight=4;overflow=hidden;rotatable=0;points=[[0,0.5],[1,0.5]];portConstraint=eastwest;whiteSpace=wrap;html=1;" vertex="1" parent="dkug5ZFoNyvDBo68FZNn-271">
          <mxGeometry y="156" width="310" height="26" as="geometry" />
        </mxCell>
        <mxCell id="dkug5ZFoNyvDBo68FZNn-278" value="+ found() : vector&amp;lt;City&amp;gt;" style="text;strokeColor=none;fillColor=none;align=left;verticalAlign=top;spacingLeft=4;spacingRight=4;overflow=hidden;rotatable=0;points=[[0,0.5],[1,0.5]];portConstraint=eastwest;whiteSpace=wrap;html=1;" vertex="1" parent="dkug5ZFoNyvDBo68FZNn-271">
          <mxGeometry y="182" width="310" height="26" as="geometry" />
        </mxCell>
        <mxCell id="dkug5ZFoNyvDBo68FZNn-279" value="- newPopulation : double" style="text;strokeColor=none;fillColor=none;align=left;verticalAlign=top;spacingLeft=4;spacingRight=4;overflow=hidden;rotatable=0;points=[[0,0.5],[1,0.5]];portConstraint=eastwest;whiteSpace=wrap;html=1;" vertex="1" parent="dkug5ZFoNyvDBo68FZNn-271">
          <mxGeometry y="208" width="310" height="26" as="geometry" />
        </mxCell>
        <mxCell id="dkug5ZFoNyvDBo68FZNn-280" value="- oldPopulation : double" style="text;strokeColor=none;fillColor=none;align=left;verticalAlign=top;spacingLeft=4;spacingRight=4;overflow=hidden;rotatable=0;points=[[0,0.5],[1,0.5]];portConstraint=eastwest;whiteSpace=wrap;html=1;" vertex="1" parent="dkug5ZFoNyvDBo68FZNn-271">
          <mxGeometry y="234" width="310" height="26" as="geometry" />
        </mxCell>
        <mxCell id="dkug5ZFoNyvDBo68FZNn-281" value="- privCity : string" style="text;strokeColor=none;fillColor=none;align=left;verticalAlign=top;spacingLeft=4;spacingRight=4;overflow=hidden;rotatable=0;points=[[0,0.5],[1,0.5]];portConstraint=eastwest;whiteSpace=wrap;html=1;" vertex="1" parent="dkug5ZFoNyvDBo68FZNn-271">
          <mxGeometry y="260" width="310" height="26" as="geometry" />
        </mxCell>
        <mxCell id="dkug5ZFoNyvDBo68FZNn-282" value="- theCity : city" style="text;strokeColor=none;fillColor=none;align=left;verticalAlign=top;spacingLeft=4;spacingRight=4;overflow=hidden;rotatable=0;points=[[0,0.5],[1,0.5]];portConstraint=eastwest;whiteSpace=wrap;html=1;" vertex="1" parent="dkug5ZFoNyvDBo68FZNn-271">
          <mxGeometry y="286" width="310" height="26" as="geometry" />
        </mxCell>
        <mxCell id="dkug5ZFoNyvDBo68FZNn-283" value="- cityFound : bool" style="text;strokeColor=none;fillColor=none;align=left;verticalAlign=top;spacingLeft=4;spacingRight=4;overflow=hidden;rotatable=0;points=[[0,0.5],[1,0.5]];portConstraint=eastwest;whiteSpace=wrap;html=1;" vertex="1" parent="dkug5ZFoNyvDBo68FZNn-271">
          <mxGeometry y="312" width="310" height="26" as="geometry" />
        </mxCell>
        <mxCell id="dkug5ZFoNyvDBo68FZNn-284" value="Extends" style="endArrow=block;endSize=16;endFill=0;html=1;rounded=0;exitX=1;exitY=0.5;exitDx=0;exitDy=0;entryX=0;entryY=0.5;entryDx=0;entryDy=0;" edge="1" parent="WIyWlLk6GJQsqaUBKTNV-1" source="dkug5ZFoNyvDBo68FZNn-260" target="dkug5ZFoNyvDBo68FZNn-103">
          <mxGeometry width="160" relative="1" as="geometry">
            <mxPoint x="1070" y="1430" as="sourcePoint" />
            <mxPoint x="1778" y="1647" as="targetPoint" />
          </mxGeometry>
        </mxCell>
        <mxCell id="dkug5ZFoNyvDBo68FZNn-285" value="Extends" style="endArrow=block;endSize=16;endFill=0;html=1;rounded=0;exitX=0.883;exitY=-0.009;exitDx=0;exitDy=0;entryX=0.031;entryY=1.005;entryDx=0;entryDy=0;exitPerimeter=0;entryPerimeter=0;" edge="1" parent="WIyWlLk6GJQsqaUBKTNV-1" source="dkug5ZFoNyvDBo68FZNn-271" target="dkug5ZFoNyvDBo68FZNn-105">
          <mxGeometry width="160" relative="1" as="geometry">
            <mxPoint x="1210" y="1360" as="sourcePoint" />
            <mxPoint x="1560" y="1402" as="targetPoint" />
          </mxGeometry>
        </mxCell>
        <mxCell id="dkug5ZFoNyvDBo68FZNn-287" value="1" style="endArrow=open;html=1;endSize=12;startArrow=diamondThin;startSize=14;startFill=0;edgeStyle=orthogonalEdgeStyle;align=left;verticalAlign=bottom;rounded=0;entryX=0.487;entryY=1.231;entryDx=0;entryDy=0;entryPerimeter=0;exitX=0.623;exitY=0.052;exitDx=0;exitDy=0;exitPerimeter=0;" edge="1" parent="WIyWlLk6GJQsqaUBKTNV-1" source="dkug5ZFoNyvDBo68FZNn-97" target="dkug5ZFoNyvDBo68FZNn-105">
          <mxGeometry x="-0.9811" y="-13" relative="1" as="geometry">
            <mxPoint x="960" y="1890" as="sourcePoint" />
            <mxPoint x="1120" y="1890" as="targetPoint" />
            <Array as="points">
              <mxPoint x="1157" y="1962" />
              <mxPoint x="1120" y="1962" />
              <mxPoint x="1120" y="1460" />
              <mxPoint x="1237" y="1460" />
            </Array>
            <mxPoint as="offset" />
          </mxGeometry>
        </mxCell>
        <mxCell id="dkug5ZFoNyvDBo68FZNn-288" value="&lt;b&gt;utilities.h&lt;/b&gt;" style="swimlane;fontStyle=0;childLayout=stackLayout;horizontal=1;startSize=26;fillColor=none;horizontalStack=0;resizeParent=1;resizeParentMax=0;resizeLast=0;collapsible=1;marginBottom=0;whiteSpace=wrap;html=1;" vertex="1" parent="WIyWlLk6GJQsqaUBKTNV-1">
          <mxGeometry x="1250" y="1790" width="390" height="156" as="geometry" />
        </mxCell>
        <mxCell id="dkug5ZFoNyvDBo68FZNn-289" value="+ intWithCommas(int n) : string" style="text;strokeColor=none;fillColor=none;align=left;verticalAlign=top;spacingLeft=4;spacingRight=4;overflow=hidden;rotatable=0;points=[[0,0.5],[1,0.5]];portConstraint=eastwest;whiteSpace=wrap;html=1;" vertex="1" parent="dkug5ZFoNyvDBo68FZNn-288">
          <mxGeometry y="26" width="390" height="26" as="geometry" />
        </mxCell>
        <mxCell id="dkug5ZFoNyvDBo68FZNn-290" value="+ printWithCommas(int x)" style="text;strokeColor=none;fillColor=none;align=left;verticalAlign=top;spacingLeft=4;spacingRight=4;overflow=hidden;rotatable=0;points=[[0,0.5],[1,0.5]];portConstraint=eastwest;whiteSpace=wrap;html=1;" vertex="1" parent="dkug5ZFoNyvDBo68FZNn-288">
          <mxGeometry y="52" width="390" height="26" as="geometry" />
        </mxCell>
        <mxCell id="dkug5ZFoNyvDBo68FZNn-291" value="+ getInteger(string prompt) : int" style="text;strokeColor=none;fillColor=none;align=left;verticalAlign=top;spacingLeft=4;spacingRight=4;overflow=hidden;rotatable=0;points=[[0,0.5],[1,0.5]];portConstraint=eastwest;whiteSpace=wrap;html=1;" vertex="1" parent="dkug5ZFoNyvDBo68FZNn-288">
          <mxGeometry y="78" width="390" height="26" as="geometry" />
        </mxCell>
        <mxCell id="dkug5ZFoNyvDBo68FZNn-292" value="+ toLower(string str) : string" style="text;strokeColor=none;fillColor=none;align=left;verticalAlign=top;spacingLeft=4;spacingRight=4;overflow=hidden;rotatable=0;points=[[0,0.5],[1,0.5]];portConstraint=eastwest;whiteSpace=wrap;html=1;" vertex="1" parent="dkug5ZFoNyvDBo68FZNn-288">
          <mxGeometry y="104" width="390" height="26" as="geometry" />
        </mxCell>
        <mxCell id="dkug5ZFoNyvDBo68FZNn-293" value="+&amp;nbsp;contains_caseInsensitive(string bigString, string substring) : bool" style="text;strokeColor=none;fillColor=none;align=left;verticalAlign=top;spacingLeft=4;spacingRight=4;overflow=hidden;rotatable=0;points=[[0,0.5],[1,0.5]];portConstraint=eastwest;whiteSpace=wrap;html=1;" vertex="1" parent="dkug5ZFoNyvDBo68FZNn-288">
          <mxGeometry y="130" width="390" height="26" as="geometry" />
        </mxCell>
        <mxCell id="dkug5ZFoNyvDBo68FZNn-294" value="1" style="endArrow=open;html=1;endSize=12;startArrow=diamondThin;startSize=14;startFill=0;edgeStyle=orthogonalEdgeStyle;align=left;verticalAlign=bottom;rounded=0;exitX=0.375;exitY=0.005;exitDx=0;exitDy=0;exitPerimeter=0;" edge="1" parent="WIyWlLk6GJQsqaUBKTNV-1" source="dkug5ZFoNyvDBo68FZNn-288">
          <mxGeometry x="-0.9811" y="-13" relative="1" as="geometry">
            <mxPoint x="1400.41" y="1749.1" as="sourcePoint" />
            <mxPoint x="1290" y="1370" as="targetPoint" />
            <Array as="points">
              <mxPoint x="1396" y="1749" />
              <mxPoint x="1337" y="1749" />
              <mxPoint x="1337" y="1673" />
              <mxPoint x="1300" y="1673" />
              <mxPoint x="1300" y="1430" />
              <mxPoint x="1290" y="1430" />
            </Array>
            <mxPoint as="offset" />
          </mxGeometry>
        </mxCell>
        <mxCell id="dkug5ZFoNyvDBo68FZNn-295" value="1" style="endArrow=open;html=1;endSize=12;startArrow=diamondThin;startSize=14;startFill=0;edgeStyle=orthogonalEdgeStyle;align=left;verticalAlign=bottom;rounded=0;exitX=0.436;exitY=1.077;exitDx=0;exitDy=0;exitPerimeter=0;entryX=0.876;entryY=-0.048;entryDx=0;entryDy=0;entryPerimeter=0;" edge="1" parent="WIyWlLk6GJQsqaUBKTNV-1" source="dkug5ZFoNyvDBo68FZNn-293" target="dkug5ZFoNyvDBo68FZNn-97">
          <mxGeometry x="-0.9811" y="-13" relative="1" as="geometry">
            <mxPoint x="1426" y="2491" as="sourcePoint" />
            <mxPoint x="1320" y="2070" as="targetPoint" />
            <Array as="points">
              <mxPoint x="1426" y="1948" />
              <mxPoint x="1426" y="2000" />
              <mxPoint x="1367" y="2000" />
              <mxPoint x="1367" y="2030" />
              <mxPoint x="1250" y="2030" />
              <mxPoint x="1250" y="2130" />
              <mxPoint x="1230" y="2130" />
              <mxPoint x="1230" y="2558" />
            </Array>
            <mxPoint as="offset" />
          </mxGeometry>
        </mxCell>
        <mxCell id="dkug5ZFoNyvDBo68FZNn-297" value="City" style="swimlane;fontStyle=1;align=center;verticalAlign=top;childLayout=stackLayout;horizontal=1;startSize=26;horizontalStack=0;resizeParent=1;resizeParentMax=0;resizeLast=0;collapsible=1;marginBottom=0;whiteSpace=wrap;html=1;" vertex="1" parent="WIyWlLk6GJQsqaUBKTNV-1">
          <mxGeometry x="2040" y="2320" width="280" height="684" as="geometry" />
        </mxCell>
        <mxCell id="dkug5ZFoNyvDBo68FZNn-298" value="- city : string" style="text;strokeColor=none;fillColor=none;align=left;verticalAlign=top;spacingLeft=4;spacingRight=4;overflow=hidden;rotatable=0;points=[[0,0.5],[1,0.5]];portConstraint=eastwest;whiteSpace=wrap;html=1;" vertex="1" parent="dkug5ZFoNyvDBo68FZNn-297">
          <mxGeometry y="26" width="280" height="26" as="geometry" />
        </mxCell>
        <mxCell id="dkug5ZFoNyvDBo68FZNn-308" value="- stateID : string" style="text;strokeColor=none;fillColor=none;align=left;verticalAlign=top;spacingLeft=4;spacingRight=4;overflow=hidden;rotatable=0;points=[[0,0.5],[1,0.5]];portConstraint=eastwest;whiteSpace=wrap;html=1;" vertex="1" parent="dkug5ZFoNyvDBo68FZNn-297">
          <mxGeometry y="52" width="280" height="26" as="geometry" />
        </mxCell>
        <mxCell id="dkug5ZFoNyvDBo68FZNn-310" value="- state : string" style="text;strokeColor=none;fillColor=none;align=left;verticalAlign=top;spacingLeft=4;spacingRight=4;overflow=hidden;rotatable=0;points=[[0,0.5],[1,0.5]];portConstraint=eastwest;whiteSpace=wrap;html=1;" vertex="1" parent="dkug5ZFoNyvDBo68FZNn-297">
          <mxGeometry y="78" width="280" height="26" as="geometry" />
        </mxCell>
        <mxCell id="dkug5ZFoNyvDBo68FZNn-311" value="&lt;div&gt;&lt;span style=&quot;background-color: initial;&quot;&gt;- zipCode : string&lt;/span&gt;&lt;/div&gt;&lt;div&gt;&lt;br&gt;&lt;/div&gt;" style="text;strokeColor=none;fillColor=none;align=left;verticalAlign=top;spacingLeft=4;spacingRight=4;overflow=hidden;rotatable=0;points=[[0,0.5],[1,0.5]];portConstraint=eastwest;whiteSpace=wrap;html=1;" vertex="1" parent="dkug5ZFoNyvDBo68FZNn-297">
          <mxGeometry y="104" width="280" height="26" as="geometry" />
        </mxCell>
        <mxCell id="dkug5ZFoNyvDBo68FZNn-306" value="- county : string" style="text;strokeColor=none;fillColor=none;align=left;verticalAlign=top;spacingLeft=4;spacingRight=4;overflow=hidden;rotatable=0;points=[[0,0.5],[1,0.5]];portConstraint=eastwest;whiteSpace=wrap;html=1;" vertex="1" parent="dkug5ZFoNyvDBo68FZNn-297">
          <mxGeometry y="130" width="280" height="26" as="geometry" />
        </mxCell>
        <mxCell id="dkug5ZFoNyvDBo68FZNn-309" value="- population : string" style="text;strokeColor=none;fillColor=none;align=left;verticalAlign=top;spacingLeft=4;spacingRight=4;overflow=hidden;rotatable=0;points=[[0,0.5],[1,0.5]];portConstraint=eastwest;whiteSpace=wrap;html=1;" vertex="1" parent="dkug5ZFoNyvDBo68FZNn-297">
          <mxGeometry y="156" width="280" height="26" as="geometry" />
        </mxCell>
        <mxCell id="dkug5ZFoNyvDBo68FZNn-307" value="- landArea : string" style="text;strokeColor=none;fillColor=none;align=left;verticalAlign=top;spacingLeft=4;spacingRight=4;overflow=hidden;rotatable=0;points=[[0,0.5],[1,0.5]];portConstraint=eastwest;whiteSpace=wrap;html=1;" vertex="1" parent="dkug5ZFoNyvDBo68FZNn-297">
          <mxGeometry y="182" width="280" height="26" as="geometry" />
        </mxCell>
        <mxCell id="dkug5ZFoNyvDBo68FZNn-305" value="- timeZone : string" style="text;strokeColor=none;fillColor=none;align=left;verticalAlign=top;spacingLeft=4;spacingRight=4;overflow=hidden;rotatable=0;points=[[0,0.5],[1,0.5]];portConstraint=eastwest;whiteSpace=wrap;html=1;" vertex="1" parent="dkug5ZFoNyvDBo68FZNn-297">
          <mxGeometry y="208" width="280" height="26" as="geometry" />
        </mxCell>
        <mxCell id="dkug5ZFoNyvDBo68FZNn-299" value="" style="line;strokeWidth=1;fillColor=none;align=left;verticalAlign=middle;spacingTop=-1;spacingLeft=3;spacingRight=3;rotatable=0;labelPosition=right;points=[];portConstraint=eastwest;strokeColor=inherit;" vertex="1" parent="dkug5ZFoNyvDBo68FZNn-297">
          <mxGeometry y="234" width="280" height="8" as="geometry" />
        </mxCell>
        <mxCell id="dkug5ZFoNyvDBo68FZNn-300" value="+ City()" style="text;strokeColor=none;fillColor=none;align=left;verticalAlign=top;spacingLeft=4;spacingRight=4;overflow=hidden;rotatable=0;points=[[0,0.5],[1,0.5]];portConstraint=eastwest;whiteSpace=wrap;html=1;" vertex="1" parent="dkug5ZFoNyvDBo68FZNn-297">
          <mxGeometry y="242" width="280" height="26" as="geometry" />
        </mxCell>
        <mxCell id="dkug5ZFoNyvDBo68FZNn-312" value="+ setCity(string city)" style="text;strokeColor=none;fillColor=none;align=left;verticalAlign=top;spacingLeft=4;spacingRight=4;overflow=hidden;rotatable=0;points=[[0,0.5],[1,0.5]];portConstraint=eastwest;whiteSpace=wrap;html=1;" vertex="1" parent="dkug5ZFoNyvDBo68FZNn-297">
          <mxGeometry y="268" width="280" height="26" as="geometry" />
        </mxCell>
        <mxCell id="dkug5ZFoNyvDBo68FZNn-313" value="+ getCity() : string" style="text;strokeColor=none;fillColor=none;align=left;verticalAlign=top;spacingLeft=4;spacingRight=4;overflow=hidden;rotatable=0;points=[[0,0.5],[1,0.5]];portConstraint=eastwest;whiteSpace=wrap;html=1;" vertex="1" parent="dkug5ZFoNyvDBo68FZNn-297">
          <mxGeometry y="294" width="280" height="26" as="geometry" />
        </mxCell>
        <mxCell id="dkug5ZFoNyvDBo68FZNn-314" value="+ setID (string id)" style="text;strokeColor=none;fillColor=none;align=left;verticalAlign=top;spacingLeft=4;spacingRight=4;overflow=hidden;rotatable=0;points=[[0,0.5],[1,0.5]];portConstraint=eastwest;whiteSpace=wrap;html=1;" vertex="1" parent="dkug5ZFoNyvDBo68FZNn-297">
          <mxGeometry y="320" width="280" height="26" as="geometry" />
        </mxCell>
        <mxCell id="dkug5ZFoNyvDBo68FZNn-315" value="+ getID() : string" style="text;strokeColor=none;fillColor=none;align=left;verticalAlign=top;spacingLeft=4;spacingRight=4;overflow=hidden;rotatable=1;points=[[0,0.5],[1,0.5]];portConstraint=eastwest;whiteSpace=wrap;html=1;movable=1;resizable=1;deletable=1;editable=1;locked=0;connectable=1;" vertex="1" parent="dkug5ZFoNyvDBo68FZNn-297">
          <mxGeometry y="346" width="280" height="26" as="geometry" />
        </mxCell>
        <mxCell id="dkug5ZFoNyvDBo68FZNn-316" value="+ setState(string state)" style="text;strokeColor=none;fillColor=none;align=left;verticalAlign=top;spacingLeft=4;spacingRight=4;overflow=hidden;rotatable=1;points=[[0,0.5],[1,0.5]];portConstraint=eastwest;whiteSpace=wrap;html=1;movable=1;resizable=1;deletable=1;editable=1;locked=0;connectable=1;" vertex="1" parent="dkug5ZFoNyvDBo68FZNn-297">
          <mxGeometry y="372" width="280" height="26" as="geometry" />
        </mxCell>
        <mxCell id="dkug5ZFoNyvDBo68FZNn-317" value="+ getState() : string" style="text;strokeColor=none;fillColor=none;align=left;verticalAlign=top;spacingLeft=4;spacingRight=4;overflow=hidden;rotatable=1;points=[[0,0.5],[1,0.5]];portConstraint=eastwest;whiteSpace=wrap;html=1;movable=1;resizable=1;deletable=1;editable=1;locked=0;connectable=1;" vertex="1" parent="dkug5ZFoNyvDBo68FZNn-297">
          <mxGeometry y="398" width="280" height="26" as="geometry" />
        </mxCell>
        <mxCell id="dkug5ZFoNyvDBo68FZNn-318" value="+ setZip(string zip)" style="text;strokeColor=none;fillColor=none;align=left;verticalAlign=top;spacingLeft=4;spacingRight=4;overflow=hidden;rotatable=1;points=[[0,0.5],[1,0.5]];portConstraint=eastwest;whiteSpace=wrap;html=1;movable=1;resizable=1;deletable=1;editable=1;locked=0;connectable=1;" vertex="1" parent="dkug5ZFoNyvDBo68FZNn-297">
          <mxGeometry y="424" width="280" height="26" as="geometry" />
        </mxCell>
        <mxCell id="dkug5ZFoNyvDBo68FZNn-319" value="+ getZip() : string" style="text;strokeColor=none;fillColor=none;align=left;verticalAlign=top;spacingLeft=4;spacingRight=4;overflow=hidden;rotatable=1;points=[[0,0.5],[1,0.5]];portConstraint=eastwest;whiteSpace=wrap;html=1;movable=1;resizable=1;deletable=1;editable=1;locked=0;connectable=1;" vertex="1" parent="dkug5ZFoNyvDBo68FZNn-297">
          <mxGeometry y="450" width="280" height="26" as="geometry" />
        </mxCell>
        <mxCell id="dkug5ZFoNyvDBo68FZNn-320" value="+ setCounty(string county)" style="text;strokeColor=none;fillColor=none;align=left;verticalAlign=top;spacingLeft=4;spacingRight=4;overflow=hidden;rotatable=1;points=[[0,0.5],[1,0.5]];portConstraint=eastwest;whiteSpace=wrap;html=1;movable=1;resizable=1;deletable=1;editable=1;locked=0;connectable=1;" vertex="1" parent="dkug5ZFoNyvDBo68FZNn-297">
          <mxGeometry y="476" width="280" height="26" as="geometry" />
        </mxCell>
        <mxCell id="dkug5ZFoNyvDBo68FZNn-321" value="+ getCounty : string" style="text;strokeColor=none;fillColor=none;align=left;verticalAlign=top;spacingLeft=4;spacingRight=4;overflow=hidden;rotatable=1;points=[[0,0.5],[1,0.5]];portConstraint=eastwest;whiteSpace=wrap;html=1;movable=1;resizable=1;deletable=1;editable=1;locked=0;connectable=1;" vertex="1" parent="dkug5ZFoNyvDBo68FZNn-297">
          <mxGeometry y="502" width="280" height="26" as="geometry" />
        </mxCell>
        <mxCell id="dkug5ZFoNyvDBo68FZNn-322" value="+ setPop(string pop)" style="text;strokeColor=none;fillColor=none;align=left;verticalAlign=top;spacingLeft=4;spacingRight=4;overflow=hidden;rotatable=1;points=[[0,0.5],[1,0.5]];portConstraint=eastwest;whiteSpace=wrap;html=1;movable=1;resizable=1;deletable=1;editable=1;locked=0;connectable=1;" vertex="1" parent="dkug5ZFoNyvDBo68FZNn-297">
          <mxGeometry y="528" width="280" height="26" as="geometry" />
        </mxCell>
        <mxCell id="dkug5ZFoNyvDBo68FZNn-323" value="+ getPop() : string" style="text;strokeColor=none;fillColor=none;align=left;verticalAlign=top;spacingLeft=4;spacingRight=4;overflow=hidden;rotatable=1;points=[[0,0.5],[1,0.5]];portConstraint=eastwest;whiteSpace=wrap;html=1;movable=1;resizable=1;deletable=1;editable=1;locked=0;connectable=1;" vertex="1" parent="dkug5ZFoNyvDBo68FZNn-297">
          <mxGeometry y="554" width="280" height="26" as="geometry" />
        </mxCell>
        <mxCell id="dkug5ZFoNyvDBo68FZNn-324" value="+ setArea(string area)" style="text;strokeColor=none;fillColor=none;align=left;verticalAlign=top;spacingLeft=4;spacingRight=4;overflow=hidden;rotatable=1;points=[[0,0.5],[1,0.5]];portConstraint=eastwest;whiteSpace=wrap;html=1;movable=1;resizable=1;deletable=1;editable=1;locked=0;connectable=1;" vertex="1" parent="dkug5ZFoNyvDBo68FZNn-297">
          <mxGeometry y="580" width="280" height="26" as="geometry" />
        </mxCell>
        <mxCell id="dkug5ZFoNyvDBo68FZNn-325" value="+ getArea() : string" style="text;strokeColor=none;fillColor=none;align=left;verticalAlign=top;spacingLeft=4;spacingRight=4;overflow=hidden;rotatable=1;points=[[0,0.5],[1,0.5]];portConstraint=eastwest;whiteSpace=wrap;html=1;movable=1;resizable=1;deletable=1;editable=1;locked=0;connectable=1;" vertex="1" parent="dkug5ZFoNyvDBo68FZNn-297">
          <mxGeometry y="606" width="280" height="26" as="geometry" />
        </mxCell>
        <mxCell id="dkug5ZFoNyvDBo68FZNn-326" value="+ setTimeZone(string zone)" style="text;strokeColor=none;fillColor=none;align=left;verticalAlign=top;spacingLeft=4;spacingRight=4;overflow=hidden;rotatable=1;points=[[0,0.5],[1,0.5]];portConstraint=eastwest;whiteSpace=wrap;html=1;movable=1;resizable=1;deletable=1;editable=1;locked=0;connectable=1;" vertex="1" parent="dkug5ZFoNyvDBo68FZNn-297">
          <mxGeometry y="632" width="280" height="26" as="geometry" />
        </mxCell>
        <mxCell id="dkug5ZFoNyvDBo68FZNn-327" value="+ getTimeZone: string" style="text;strokeColor=none;fillColor=none;align=left;verticalAlign=top;spacingLeft=4;spacingRight=4;overflow=hidden;rotatable=1;points=[[0,0.5],[1,0.5]];portConstraint=eastwest;whiteSpace=wrap;html=1;movable=1;resizable=1;deletable=1;editable=1;locked=0;connectable=1;" vertex="1" parent="dkug5ZFoNyvDBo68FZNn-297">
          <mxGeometry y="658" width="280" height="26" as="geometry" />
        </mxCell>
        <mxCell id="dkug5ZFoNyvDBo68FZNn-328" value="1" style="endArrow=open;html=1;endSize=12;startArrow=diamondThin;startSize=14;startFill=0;edgeStyle=orthogonalEdgeStyle;align=left;verticalAlign=bottom;rounded=0;entryX=1;entryY=0.5;entryDx=0;entryDy=0;" edge="1" parent="WIyWlLk6GJQsqaUBKTNV-1" source="dkug5ZFoNyvDBo68FZNn-300" target="dkug5ZFoNyvDBo68FZNn-98">
          <mxGeometry x="-1" y="3" relative="1" as="geometry">
            <mxPoint x="1680" y="2550" as="sourcePoint" />
            <mxPoint x="1840" y="2550" as="targetPoint" />
          </mxGeometry>
        </mxCell>
      </root>
    </mxGraphModel>
  </diagram>
</mxfile>
